<svg viewBox="0 0 240.121651716 120.789299213" width="240.121651716pt" height="120.789299213pt" xmlns="http://www.w3.org/2000/svg" xmlns:xlink="http://www.w3.org/1999/xlink" xmlns:h5="http://www.w3.org/1999/xhtml"><path fill="#ffffff" fill-rule="nonzero" d="M 0 0v 120.789299213h 240.121651716v -120.789299213Z "/><g transform="translate(6 6)"><path fill="none" stroke="#000000" stroke-width="0.4" stroke-linecap="butt" stroke-linejoin="miter" stroke-miterlimit="4" transform="translate(0.785740157 96.628519685)" d="M 0 0h 85.603628097"/><path fill="#000000" fill-rule="nonzero" stroke="#000000" stroke-width="0.4" stroke-linecap="butt" stroke-linejoin="miter" stroke-miterlimit="4" stroke-dashoffset="0" stroke-dasharray="" transform="translate(86.389368252 94.502535433)" d="M 0 0m 5.669291339 2.125984252l -5.669291339 2.125984252v -4.251968504l 5.669291339 2.125984252Z "/><path fill="none" stroke="#000000" stroke-width="0.4" stroke-linecap="butt" stroke-linejoin="miter" stroke-miterlimit="4" transform="translate(7.588889764 21.229615998)" d="M 0 0m 0 82.202053294v -82.202053294"/><path fill="#000000" fill-rule="nonzero" stroke="#000000" stroke-width="0.4" stroke-linecap="butt" stroke-linejoin="miter" stroke-miterlimit="4" stroke-dashoffset="0" stroke-dasharray="" transform="translate(5.462905512 15.560324662)" d="M 0 0m 2.125984252 0l 2.125984252 5.669291339h -4.251968504l 2.125984252 -5.669291339Z "/><path fill="none" stroke="#000000" stroke-width="0.7" stroke-linecap="butt" stroke-linejoin="miter" stroke-miterlimit="4" transform="translate(7.588889764 28.597023622)" d="M 0 0m 68.031496063 68.031496063c 0 -37.572757784 -30.458738279 -68.031496063 -68.031496063 -68.031496063"/><path fill="none" stroke="#000000" stroke-width="0.7" stroke-linecap="butt" stroke-linejoin="miter" stroke-miterlimit="4" transform="translate(7.588889764 48.522987485)" d="M 0 0m 0 48.1055322l 48.1055322 -48.1055322"/><path fill="none" stroke="#000000" stroke-width="0.6" stroke-linecap="butt" stroke-linejoin="miter" stroke-miterlimit="4" stroke-dashoffset="0" stroke-dasharray="3 3" transform="translate(55.694421964 48.522987485)" d="M 0 0v 48.1055322"/><path fill="#000000" fill-rule="nonzero" stroke="#000000" stroke-width="1" stroke-linecap="butt" stroke-linejoin="miter" stroke-miterlimit="4" transform="translate(53.993634563 46.822200083)" d="M 0 0m 1.700787402 0c -0.938467276 0 -1.700787402 0.762320126 -1.700787402 1.700787402c 0 0.938467276 0.762320126 1.700787402 1.700787402 1.700787402c 0.938467276 0 1.700787402 -0.762320126 1.700787402 -1.700787402c 0 -0.938467276 -0.762320126 -1.700787402 -1.700787402 -1.700787402Z "/><path fill="none" transform="translate(59.095996767 35.477412681)" d="M 0 0h 16.2264v 9.644h -16.2264v -9.644Z "/><g transform="translate(59.095996616 35.477412354)"><g transform="matrix(1 0 0 -1 0 5.296)"><use xlink:href="#gF7613EB426F1DD85760A5F8AFBE20C9A" x="0" y="0" fill="#000000" fill-rule="nonzero"/></g><g transform="matrix(1 0 0 -1 4.592 5.292)"><use xlink:href="#gA85469E56AF90177761A0CFAD74BB025" x="0" y="0" fill="#000000" fill-rule="nonzero"/></g><g transform="matrix(1 0 0 -1 8.592 1.696)"><use xlink:href="#gEA8B8EB394E4BDD679A98B385FDFA8A0" x="0" y="0" fill="#000000" fill-rule="nonzero"/></g><g transform="matrix(1 0 0 -1 8.7852 9.136)"><use xlink:href="#gE82AE38A28914BB1BA2E35E024D9F6CE" x="0" y="0" fill="#000000" fill-rule="nonzero"/></g><path fill="none" stroke="#000000" stroke-width="0.528" stroke-linecap="butt" stroke-linejoin="miter" stroke-miterlimit="4" transform="translate(8.592 3.056)" d="M 0 0h 3.6344"/><g transform="matrix(1 0 0 -1 13.0264 5.292)"><use xlink:href="#g9BEA2708A56DE300F7170FCEB114C05D" x="0" y="0" fill="#000000" fill-rule="nonzero"/></g></g><path fill="none" stroke="#000000" stroke-width="0.6" stroke-linecap="butt" stroke-linejoin="miter" stroke-miterlimit="4" stroke-dashoffset="0" stroke-dasharray="3 3" transform="translate(7.588889764 48.522987485)" d="M 0 0h 48.1055322"/><path fill="none" stroke="#000000" stroke-width="0.9" stroke-linecap="butt" stroke-linejoin="miter" stroke-miterlimit="4" transform="translate(7.588889764 48.522987485)" d="M 0 0m 0 48.1055322h 48.1055322v -48.1055322h -48.1055322v 48.1055322Z "/><path fill="none" transform="translate(29.888155864 102.450799213)" d="M 0 0h 3.507v 4.683h -3.507v -4.683Z "/><g transform="translate(29.888155618 102.450799005)"><g transform="matrix(1 0 0 -1 0 4.634)"><use xlink:href="#g6D78BA9C878E8F4BD5F8C42A3BC6671F" x="0" y="0" fill="#000000" fill-rule="nonzero"/></g></g><path fill="none" transform="translate(0 70.234253585)" d="M 0 0h 3.507v 4.683h -3.507v -4.683Z "/><g transform="translate(-2.46e-7 70.234253377)"><g transform="matrix(1 0 0 -1 0 4.634)"><use xlink:href="#g6D78BA9C878E8F4BD5F8C42A3BC6671F" x="0" y="0" fill="#000000" fill-rule="nonzero"/></g></g><path fill="none" transform="translate(7.35468224)" d="M 0 0h 68.499911111v 9.572h -68.499911111v -9.572Z "/><g transform="translate(7.354682154 -1.01e-7)"><g transform="matrix(1 0 0 -1 0 5.732)"><use xlink:href="#g207D2080D28D7C57E8034D6401ED7D65" x="0" y="0" fill="#000000" fill-rule="nonzero"/><use xlink:href="#gFCD907DC3F0F3DBBAAF140542CC28075" x="3.82" y="0" fill="#000000" fill-rule="nonzero"/><use xlink:href="#g5BCE1DD3EB8151BCBED749D4FFBCF8B9" x="7.796" y="0" fill="#000000" fill-rule="nonzero"/><use xlink:href="#g5BCE1DD3EB8151BCBED749D4FFBCF8B9" x="10.708" y="0" fill="#000000" fill-rule="nonzero"/><use xlink:href="#g8CC222961F4C360CBD97BD0981522CFF" x="13.456" y="0" fill="#000000" fill-rule="nonzero"/><use xlink:href="#g785C2BFE2FD544C2CA93004C9E6909D4" x="19.728" y="0" fill="#000000" fill-rule="nonzero"/></g><g transform="matrix(1 0 0 -1 23.776 5.732)"><use xlink:href="#g3CC5A72599BE87736B8779C76D10D360" x="0" y="0" fill="#000000" fill-rule="nonzero"/><use xlink:href="#g43098993659A5A24F6C957D6C9F93F" x="3.816" y="0" fill="#000000" fill-rule="nonzero"/><use xlink:href="#g8A2FD8AB5210892E0C175217958DAAC" x="8.352" y="0" fill="#000000" fill-rule="nonzero"/></g><g transform="matrix(1 0 0 -1 37.725333333 2.132)"><use xlink:href="#gEA8B8EB394E4BDD679A98B385FDFA8A0" x="0" y="0" fill="#000000" fill-rule="nonzero"/></g><g transform="matrix(1 0 0 -1 37.918533333 9.572)"><use xlink:href="#gE82AE38A28914BB1BA2E35E024D9F6CE" x="0" y="0" fill="#000000" fill-rule="nonzero"/></g><path fill="none" stroke="#000000" stroke-width="0.528" stroke-linecap="butt" stroke-linejoin="miter" stroke-miterlimit="4" transform="translate(37.725333333 3.492)" d="M 0 0h 3.6344"/><g transform="matrix(1 0 0 -1 44.381955556 5.732)"><use xlink:href="#g426D4747B6A7C944AFFA3F46E7BBAE5D" x="0" y="0" fill="#000000" fill-rule="nonzero"/></g><g transform="matrix(1 0 0 -1 52.084177778 5.732)"><use xlink:href="#g8A2FD8AB5210892E0C175217958DAAC" x="0" y="0" fill="#000000" fill-rule="nonzero"/><use xlink:href="#g25ADDEB4FDDE0943CE2292BD7DE03C61" x="3.464" y="0" fill="#000000" fill-rule="nonzero"/><use xlink:href="#g64E30DDCA85D998B4833244C6CC4286A" x="5.384" y="0" fill="#000000" fill-rule="nonzero"/></g><g transform="matrix(1 0 0 -1 64.065511111 2.132)"><use xlink:href="#gEA8B8EB394E4BDD679A98B385FDFA8A0" x="0" y="0" fill="#000000" fill-rule="nonzero"/></g><g transform="matrix(1 0 0 -1 64.258711111 9.572)"><use xlink:href="#gE82AE38A28914BB1BA2E35E024D9F6CE" x="0" y="0" fill="#000000" fill-rule="nonzero"/></g><path fill="none" stroke="#000000" stroke-width="0.528" stroke-linecap="butt" stroke-linejoin="miter" stroke-miterlimit="4" transform="translate(64.065511111 3.492)" d="M 0 0h 3.6344"/></g><path fill="none" stroke="#000000" stroke-width="0.4" stroke-linecap="butt" stroke-linejoin="miter" stroke-miterlimit="4" transform="translate(136.848732283 96.628519685)" d="M 0 0h 85.603628097"/><path fill="#000000" fill-rule="nonzero" stroke="#000000" stroke-width="0.4" stroke-linecap="butt" stroke-linejoin="miter" stroke-miterlimit="4" stroke-dashoffset="0" stroke-dasharray="" transform="translate(222.452360378 94.502535433)" d="M 0 0m 5.669291339 2.125984252l -5.669291339 2.125984252v -4.251968504l 5.669291339 2.125984252Z "/><path fill="none" stroke="#000000" stroke-width="0.4" stroke-linecap="butt" stroke-linejoin="miter" stroke-miterlimit="4" transform="translate(143.65188189 21.229615998)" d="M 0 0m 0 82.202053294v -82.202053294"/><path fill="#000000" fill-rule="nonzero" stroke="#000000" stroke-width="0.4" stroke-linecap="butt" stroke-linejoin="miter" stroke-miterlimit="4" stroke-dashoffset="0" stroke-dasharray="" transform="translate(141.525897638 15.560324662)" d="M 0 0m 2.125984252 0l 2.125984252 5.669291339h -4.251968504l 2.125984252 -5.669291339Z "/><path fill="none" stroke="#000000" stroke-width="0.7" stroke-linecap="butt" stroke-linejoin="miter" stroke-miterlimit="4" transform="translate(143.65188189 28.597023622)" d="M 0 0m 68.031496063 68.031496063c 0 -37.572757784 -30.458738279 -68.031496063 -68.031496063 -68.031496063"/><path fill="none" stroke="#000000" stroke-width="0.7" stroke-linecap="butt" stroke-linejoin="miter" stroke-miterlimit="4" transform="translate(143.65188189 37.711515837)" d="M 0 0m 0 58.917003848l 34.015748031 -58.917003848"/><path fill="none" stroke="#000000" stroke-width="0.6" stroke-linecap="butt" stroke-linejoin="miter" stroke-miterlimit="4" stroke-dashoffset="0" stroke-dasharray="3 3" transform="translate(177.667629921 37.711515837)" d="M 0 0v 58.917003848"/><path fill="#000000" fill-rule="nonzero" stroke="#000000" stroke-width="1" stroke-linecap="butt" stroke-linejoin="miter" stroke-miterlimit="4" transform="translate(175.96684252 36.010728435)" d="M 0 0m 1.700787402 0c -0.938467276 0 -1.700787402 0.762320126 -1.700787402 1.700787402c 0 0.938467276 0.762320126 1.700787402 1.700787402 1.700787402c 0.938467276 0 1.700787402 -0.762320126 1.700787402 -1.700787402c 0 -0.938467276 -0.762320126 -1.700787402 -1.700787402 -1.700787402Z "/><path fill="none" transform="translate(181.069204724 24.665941034)" d="M 0 0h 16.2264v 9.644h -16.2264v -9.644Z "/><g transform="translate(181.069204573 24.665940706)"><g transform="matrix(1 0 0 -1 0 5.296)"><use xlink:href="#gF7613EB426F1DD85760A5F8AFBE20C9A" x="0" y="0" fill="#000000" fill-rule="nonzero"/></g><g transform="matrix(1 0 0 -1 4.592 5.292)"><use xlink:href="#gA85469E56AF90177761A0CFAD74BB025" x="0" y="0" fill="#000000" fill-rule="nonzero"/></g><g transform="matrix(1 0 0 -1 8.592 1.696)"><use xlink:href="#gEA8B8EB394E4BDD679A98B385FDFA8A0" x="0" y="0" fill="#000000" fill-rule="nonzero"/></g><g transform="matrix(1 0 0 -1 8.7852 9.136)"><use xlink:href="#gE063C875BC6F75E0CBBE196B966878F4" x="0" y="0" fill="#000000" fill-rule="nonzero"/></g><path fill="none" stroke="#000000" stroke-width="0.528" stroke-linecap="butt" stroke-linejoin="miter" stroke-miterlimit="4" transform="translate(8.592 3.056)" d="M 0 0h 3.6344"/><g transform="matrix(1 0 0 -1 13.0264 5.292)"><use xlink:href="#g9BEA2708A56DE300F7170FCEB114C05D" x="0" y="0" fill="#000000" fill-rule="nonzero"/></g></g><path fill="none" stroke="#000000" stroke-width="0.9" stroke-linecap="butt" stroke-linejoin="miter" stroke-miterlimit="4" transform="translate(143.65188189 37.711515837)" d="M 0 0m 0 58.917003848h 68.031496063l -34.015748031 -58.917003848l -34.015748031 58.917003848Z "/><path fill="none" transform="translate(158.538755906 100.795299213)" d="M 0 0h 4.242v 7.994h -4.242v -7.994Z "/><g transform="translate(158.538755641 100.79529915)"><g transform="matrix(1 0 0 -1 0.7 1.484)"><use xlink:href="#gECD731C578433DACAA1D62C05F22F39C" x="0" y="0" fill="#000000" fill-rule="nonzero"/></g><g transform="matrix(1 0 0 -1 0.7 7.994)"><use xlink:href="#g7544D3D0CD68A872F22547E84D6C5ACB" x="0" y="0" fill="#000000" fill-rule="nonzero"/></g><path fill="none" stroke="#000000" stroke-width="0.462" stroke-linecap="butt" stroke-linejoin="miter" stroke-miterlimit="4" transform="translate(0.7 2.674)" d="M 0 0h 2.842"/></g><path fill="none" transform="translate(209.653377953 102.475299213)" d="M 0 0h 4.06v 4.634h -4.06v -4.634Z "/><g transform="translate(209.653377638 102.475299187)"><g transform="matrix(1 0 0 -1 0 4.634)"><use xlink:href="#gEB2988F43CCB186328827BE124F4D454" x="0" y="0" fill="#000000" fill-rule="nonzero"/></g></g><path fill="none" transform="translate(127.711629921 1.19)" d="M 0 0h 99.912v 7.192h -99.912v -7.192Z "/><g transform="translate(127.711629883 1.189999685)"><g transform="matrix(1 0 0 -1 0 5.732)"><use xlink:href="#g4F5EBA454D6779203DE0890AFB7FE1C5" x="0" y="0" fill="#000000" fill-rule="nonzero"/><use xlink:href="#g5BCE1DD3EB8151BCBED749D4FFBCF8B9" x="2.868" y="0" fill="#000000" fill-rule="nonzero"/><use xlink:href="#g6C67810DC349E282DBB007EA01A1B447" x="5.78" y="0" fill="#000000" fill-rule="nonzero"/><use xlink:href="#gFCD907DC3F0F3DBBAAF140542CC28075" x="7.7" y="0" fill="#000000" fill-rule="nonzero"/><use xlink:href="#gF21B5D037BB26DF9C2CD3272E79399AE" x="11.676" y="0" fill="#000000" fill-rule="nonzero"/><use xlink:href="#gD8EB556C02B64E161F8CC2665579827D" x="16.14" y="0" fill="#000000" fill-rule="nonzero"/><use xlink:href="#g2E83E0A2BD3D0E506E566F3A4A66C246" x="20.3" y="0" fill="#000000" fill-rule="nonzero"/><use xlink:href="#g173C65C3B464FC32445BBFB6797A9CF3" x="22.188" y="0" fill="#000000" fill-rule="nonzero"/><use xlink:href="#g8CC222961F4C360CBD97BD0981522CFF" x="28.46" y="0" fill="#000000" fill-rule="nonzero"/><use xlink:href="#g7685AC247E0E5F790529712D85B5CA3" x="32.684" y="0" fill="#000000" fill-rule="nonzero"/><use xlink:href="#g2693B7DFF60489EC54D938AFADF81B13" x="37.164" y="0" fill="#000000" fill-rule="nonzero"/><use xlink:href="#g6C67810DC349E282DBB007EA01A1B447" x="41.624" y="0" fill="#000000" fill-rule="nonzero"/><use xlink:href="#g2E83E0A2BD3D0E506E566F3A4A66C246" x="43.544" y="0" fill="#000000" fill-rule="nonzero"/><use xlink:href="#gFCD907DC3F0F3DBBAAF140542CC28075" x="45.432" y="0" fill="#000000" fill-rule="nonzero"/><use xlink:href="#g4F5EBA454D6779203DE0890AFB7FE1C5" x="49.356" y="0" fill="#000000" fill-rule="nonzero"/><use xlink:href="#g8CC222961F4C360CBD97BD0981522CFF" x="52.204" y="0" fill="#000000" fill-rule="nonzero"/><use xlink:href="#g5BCE1DD3EB8151BCBED749D4FFBCF8B9" x="56.428" y="0" fill="#000000" fill-rule="nonzero"/><use xlink:href="#gFCD907DC3F0F3DBBAAF140542CC28075" x="59.276" y="0" fill="#000000" fill-rule="nonzero"/><use xlink:href="#g2E83E0A2BD3D0E506E566F3A4A66C246" x="63.252" y="0" fill="#000000" fill-rule="nonzero"/><use xlink:href="#gF443B90E501BA466DAEC029E2936BD2A" x="67.188" y="0" fill="#000000" fill-rule="nonzero"/><use xlink:href="#g173C65C3B464FC32445BBFB6797A9CF3" x="71.668" y="0" fill="#000000" fill-rule="nonzero"/><use xlink:href="#g207D2080D28D7C57E8034D6401ED7D65" x="77.94" y="0" fill="#000000" fill-rule="nonzero"/><use xlink:href="#gC55E37F317CFE7DA11DFCABDFA1DEA22" x="81.688" y="0" fill="#000000" fill-rule="nonzero"/><use xlink:href="#g4F5EBA454D6779203DE0890AFB7FE1C5" x="86.152" y="0" fill="#000000" fill-rule="nonzero"/><use xlink:href="#g8CC222961F4C360CBD97BD0981522CFF" x="89" y="0" fill="#000000" fill-rule="nonzero"/><use xlink:href="#gE719EDE402D5F3C405992F43B216315E" x="95.272" y="0" fill="#000000" fill-rule="nonzero"/></g></g></g><defs><symbol id="gF7613EB426F1DD85760A5F8AFBE20C9A" overflow="visible"><path d="M 0 0m 0.16 0h 0.744l 0.264 2.152h 0.832c 1.16 0 2.216 0.648 2.216 2.056c 0 1.072 -0.688 1.52 -1.776 1.52h -1.584Z m 1.08 2.744l 0.296 2.4h 0.832c 0.688 0 1.096 -0.312 1.096 -1c 0 -0.872 -0.512 -1.4 -1.392 -1.4Z "/></symbol><symbol id="gA85469E56AF90177761A0CFAD74BB025" overflow="visible"><path d="M 0 0m 0.672 2.24c 0 -2.824 0.712 -4.624 1.704 -6.592l 0.48 0.304c -0.928 1.952 -1.392 3.712 -1.392 6.288c 0 2.576 0.464 4.328 1.392 6.28l -0.48 0.304c -0.992 -1.968 -1.704 -3.768 -1.704 -6.584Z "/></symbol><symbol id="gEA8B8EB394E4BDD679A98B385FDFA8A0" overflow="visible"><path d="M 0 0m 0.2072 0.0896c 0 -0.084 0.0784 -0.112 0.2184 -0.112c 0.56 0 0.8568 0.8344 1.0752 2.4024h 0.8624c -0.1176 -0.7336 -0.2856 -1.232 -0.2856 -1.6856c 0 -0.4312 0.14 -0.7112 0.5432 -0.7112c 0.1736 0 0.3584 0.0504 0.3808 0.1904l 0.028 0.224h -0.112c -0.2016 0 -0.2464 0.1848 -0.2464 0.6272c 0 0.5264 0.0336 0.9296 0.1288 1.3552h 0.3696c 0.1176 0 0.1904 0.084 0.2016 0.1848l 0.028 0.2632h -2.6656c -0.1232 0 -0.2296 -0.0896 -0.2464 -0.2072l -0.028 -0.2408h 0.5488c -0.084 -0.5712 -0.3472 -1.9096 -0.7 -1.9096h -0.056Z "/></symbol><symbol id="gE82AE38A28914BB1BA2E35E024D9F6CE" overflow="visible"><path d="M 0 0m 0.0504 1.4448l 0.056 -0.2856c 0.0112 -0.0672 0.084 -0.1288 0.1624 -0.1288h 1.7584v -1.0304h 0.4928v 1.0304h 0.4536c 0.0728 0 0.1232 0.0504 0.1232 0.1232v 0.3192h -0.5768v 2.5536h -0.532Z m 0.6104 0.028l 1.3888 1.904c -0.0112 -0.1232 -0.0224 -0.2464 -0.0224 -0.364v -1.54Z "/></symbol><symbol id="g9BEA2708A56DE300F7170FCEB114C05D" overflow="visible"><path d="M 0 0m 0.344 -4.048l 0.48 -0.304c 0.992 1.968 1.704 3.768 1.704 6.592c 0 2.816 -0.712 4.616 -1.704 6.584l -0.48 -0.304c 0.92 -1.952 1.392 -3.704 1.392 -6.28c 0 -2.576 -0.472 -4.336 -1.392 -6.288Z "/></symbol><symbol id="g6D78BA9C878E8F4BD5F8C42A3BC6671F" overflow="visible"><path d="M 0 0m 0.35 1.4c 0 -0.854 0.413 -1.449 1.267 -1.449c 0.707 0 1.043 0.308 1.393 0.686l -0.154 0.189c -0.035 0.035 -0.07 0.056 -0.119 0.056c -0.189 0 -0.357 -0.441 -0.994 -0.441c -0.546 0 -0.77 0.413 -0.77 0.959c 0 0.903 0.504 1.694 1.176 1.694c 0.469 0 0.581 -0.28 0.707 -0.28c 0.056 0 0.091 0.028 0.119 0.056l 0.196 0.238c -0.224 0.294 -0.504 0.49 -1.008 0.49c -1.099 0 -1.813 -1.106 -1.813 -2.198Z "/></symbol><symbol id="g207D2080D28D7C57E8034D6401ED7D65" overflow="visible"><path d="M 0 0m 3.384 3.332q -0.032 -0.044 -0.064 -0.068q -0.032 -0.024 -0.088 -0.024q -0.06 0 -0.132 0.05q -0.072 0.05 -0.178 0.11q -0.106 0.06 -0.26 0.11q -0.154 0.05 -0.378 0.05q -0.3 0 -0.528 -0.106q -0.228 -0.106 -0.382 -0.306q -0.154 -0.2 -0.232 -0.484q -0.078 -0.284 -0.078 -0.636q 0 -0.368 0.084 -0.654q 0.084 -0.286 0.238 -0.48q 0.154 -0.194 0.372 -0.296q 0.218 -0.102 0.49 -0.102q 0.26 0 0.428 0.062q 0.168 0.062 0.278 0.138q 0.11 0.076 0.184 0.138q 0.074 0.062 0.146 0.062q 0.088 0 0.136 -0.068l 0.2 -0.26q -0.132 -0.164 -0.3 -0.28q -0.168 -0.116 -0.362 -0.194q -0.194 -0.078 -0.406 -0.114q -0.212 -0.036 -0.432 -0.036q -0.38 0 -0.706 0.14q -0.326 0.14 -0.566 0.406q -0.24 0.266 -0.376 0.654q -0.136 0.388 -0.136 0.884q 0 0.452 0.126 0.836q 0.126 0.384 0.368 0.662q 0.242 0.278 0.596 0.434q 0.354 0.156 0.814 0.156q 0.428 0 0.754 -0.138q 0.326 -0.138 0.578 -0.39l -0.188 -0.256Z "/></symbol><symbol id="gFCD907DC3F0F3DBBAAF140542CC28075" overflow="visible"><path d="M 0 0m 2.76 1.824q -0.492 -0.016 -0.838 -0.078q -0.346 -0.062 -0.564 -0.162q -0.218 -0.1 -0.316 -0.236q -0.098 -0.136 -0.098 -0.304q 0 -0.16 0.052 -0.276q 0.052 -0.116 0.142 -0.19q 0.09 -0.074 0.212 -0.108q 0.122 -0.034 0.262 -0.034q 0.188 0 0.344 0.038q 0.156 0.038 0.294 0.11q 0.138 0.072 0.264 0.172q 0.126 0.1 0.246 0.228v 0.84Z m -2.3 1.656q 0.336 0.324 0.724 0.484q 0.388 0.16 0.86 0.16q 0.34 0 0.604 -0.112q 0.264 -0.112 0.444 -0.312q 0.18 -0.2 0.272 -0.484q 0.092 -0.284 0.092 -0.624v -2.592h -0.316q -0.104 0 -0.16 0.034q -0.056 0.034 -0.088 0.134l -0.08 0.384q -0.16 -0.148 -0.312 -0.262q -0.152 -0.114 -0.32 -0.192q -0.168 -0.078 -0.358 -0.12q -0.19 -0.042 -0.422 -0.042q -0.236 0 -0.444 0.066q -0.208 0.066 -0.362 0.198q -0.154 0.132 -0.244 0.334q -0.09 0.202 -0.09 0.478q 0 0.24 0.132 0.462q 0.132 0.222 0.428 0.394q 0.296 0.172 0.772 0.282q 0.476 0.11 1.168 0.126v 0.316q 0 0.472 -0.204 0.714q -0.204 0.242 -0.596 0.242q -0.264 0 -0.442 -0.066q -0.178 -0.066 -0.308 -0.148q -0.13 -0.082 -0.224 -0.148q -0.094 -0.066 -0.186 -0.066q -0.072 0 -0.124 0.038q -0.052 0.038 -0.088 0.094l -0.128 0.228Z "/></symbol><symbol id="g5BCE1DD3EB8151BCBED749D4FFBCF8B9" overflow="visible"><path d="M 0 0m 1.24 3.24q 0.192 0.416 0.472 0.65q 0.28 0.234 0.684 0.234q 0.128 0 0.246 -0.028q 0.118 -0.028 0.21 -0.088l -0.052 -0.532q -0.024 -0.1 -0.12 -0.1q -0.056 0 -0.164 0.024q -0.108 0.024 -0.244 0.024q -0.192 0 -0.342 -0.056q -0.15 -0.056 -0.268 -0.166q -0.118 -0.11 -0.212 -0.272q -0.094 -0.162 -0.17 -0.37v -2.56h -0.716v 4.052h 0.408q 0.116 0 0.16 -0.044q 0.044 -0.044 0.06 -0.152l 0.048 -0.616Z "/></symbol><symbol id="g8CC222961F4C360CBD97BD0981522CFF" overflow="visible"><path d="M 0 0m 3.276 2.468q 0 0.248 -0.07 0.454q -0.07 0.206 -0.204 0.356q -0.134 0.15 -0.326 0.232q -0.192 0.082 -0.436 0.082q -0.512 0 -0.81 -0.298q -0.298 -0.298 -0.37 -0.826h 2.216Z m 0.576 -1.9q -0.132 -0.16 -0.316 -0.278q -0.184 -0.118 -0.394 -0.194q -0.21 -0.076 -0.434 -0.114q -0.224 -0.038 -0.444 -0.038q -0.42 0 -0.774 0.142q -0.354 0.142 -0.612 0.416q -0.258 0.274 -0.402 0.678q -0.144 0.404 -0.144 0.928q 0 0.424 0.13 0.792q 0.13 0.368 0.374 0.638q 0.244 0.27 0.596 0.424q 0.352 0.154 0.792 0.154q 0.364 0 0.674 -0.122q 0.31 -0.122 0.536 -0.352q 0.226 -0.23 0.354 -0.568q 0.128 -0.338 0.128 -0.77q 0 -0.168 -0.036 -0.224q -0.036 -0.056 -0.136 -0.056h -2.708q 0.012 -0.384 0.106 -0.668q 0.094 -0.284 0.262 -0.474q 0.168 -0.19 0.4 -0.284q 0.232 -0.094 0.52 -0.094q 0.268 0 0.462 0.062q 0.194 0.062 0.334 0.134q 0.14 0.072 0.234 0.134q 0.094 0.062 0.162 0.062q 0.088 0 0.136 -0.068l 0.2 -0.26Z m -0.448 5.228l -0.932 -1.032q -0.056 -0.06 -0.11 -0.086q -0.054 -0.026 -0.138 -0.026h -0.424l 0.592 0.968q 0.056 0.092 0.122 0.134q 0.066 0.042 0.194 0.042h 0.696Z "/></symbol><symbol id="g785C2BFE2FD544C2CA93004C9E6909D4" overflow="visible"><path d="M 0 0m 0.5 0.44q 0 0.104 0.038 0.196q 0.038 0.092 0.104 0.16q 0.066 0.068 0.158 0.108q 0.092 0.04 0.196 0.04q 0.104 0 0.196 -0.04q 0.092 -0.04 0.16 -0.108q 0.068 -0.068 0.108 -0.16q 0.04 -0.092 0.04 -0.196q 0 -0.108 -0.04 -0.198q -0.04 -0.09 -0.108 -0.158q -0.068 -0.068 -0.16 -0.106q -0.092 -0.038 -0.196 -0.038q -0.104 0 -0.196 0.038q -0.092 0.038 -0.158 0.106q -0.066 0.068 -0.104 0.158q -0.038 0.09 -0.038 0.198Z m 0 3q 0 0.104 0.038 0.196q 0.038 0.092 0.104 0.16q 0.066 0.068 0.158 0.108q 0.092 0.04 0.196 0.04q 0.104 0 0.196 -0.04q 0.092 -0.04 0.16 -0.108q 0.068 -0.068 0.108 -0.16q 0.04 -0.092 0.04 -0.196q 0 -0.108 -0.04 -0.198q -0.04 -0.09 -0.108 -0.158q -0.068 -0.068 -0.16 -0.106q -0.092 -0.038 -0.196 -0.038q -0.104 0 -0.196 0.038q -0.092 0.038 -0.158 0.106q -0.066 0.068 -0.104 0.158q -0.038 0.09 -0.038 0.198Z "/></symbol><symbol id="g3CC5A72599BE87736B8779C76D10D360" overflow="visible"><path d="M 0 0m 0.336 2.032c 0 -1.136 0.592 -2.088 1.784 -2.088c 0.68 0 1.192 0.24 1.496 0.624l -0.192 0.264c -0.032 0.04 -0.08 0.064 -0.144 0.064c -0.176 0 -0.352 -0.4 -1.032 -0.4c -0.824 0 -1.184 0.704 -1.184 1.536c 0 0.88 0.352 1.528 1.224 1.528c 0.592 0 0.8 -0.32 0.944 -0.32c 0.088 0 0.112 0.032 0.152 0.088l 0.184 0.256c -0.32 0.32 -0.712 0.528 -1.328 0.528c -0.872 0 -1.904 -0.488 -1.904 -2.08Z "/></symbol><symbol id="g43098993659A5A24F6C957D6C9F93F" overflow="visible"><path d="M 0 0m 0.336 2.032c 0 -1.104 0.592 -2.088 1.936 -2.088c 1.336 0 1.928 0.992 1.928 2.088c 0 1.144 -0.616 2.08 -1.928 2.08c -1.336 0 -1.936 -0.944 -1.936 -2.08Z m 0.736 -0.008c 0 0.888 0.32 1.528 1.2 1.528c 0.856 0 1.192 -0.64 1.192 -1.528c 0 -0.888 -0.336 -1.528 -1.192 -1.528c -0.864 0 -1.2 0.632 -1.2 1.528Z "/></symbol><symbol id="g8A2FD8AB5210892E0C175217958DAAC" overflow="visible"><path d="M 0 0m 0.272 0.432c 0.304 -0.288 0.76 -0.496 1.344 -0.496c 1.048 0 1.536 0.608 1.536 1.304c 0 1.328 -2.096 0.92 -2.096 1.752c 0 0.4 0.368 0.592 0.776 0.592c 0.544 0 0.808 -0.288 0.944 -0.288c 0.072 0 0.12 0.032 0.152 0.088l 0.16 0.264c -0.296 0.28 -0.712 0.464 -1.272 0.464c -0.832 0 -1.44 -0.464 -1.44 -1.168c 0 -1.416 2.104 -0.912 2.104 -1.824c 0 -0.456 -0.36 -0.672 -0.824 -0.672c -0.648 0 -0.84 0.36 -1.032 0.36c -0.096 0 -0.152 -0.048 -0.192 -0.104Z "/></symbol><symbol id="g426D4747B6A7C944AFFA3F46E7BBAE5D" overflow="visible"><path d="M 0 0m 0.384 1.176h 4.712v 0.528h -4.712Z m 0 1.6h 4.712v 0.528h -4.712Z "/></symbol><symbol id="g25ADDEB4FDDE0943CE2292BD7DE03C61" overflow="visible"><path d="M 0 0m 0.448 5.328c 0 -0.288 0.216 -0.512 0.504 -0.512c 0.288 0 0.52 0.224 0.52 0.512c 0 0.168 -0.152 0.512 -0.52 0.512c -0.288 0 -0.504 -0.224 -0.504 -0.512Z m 0.16 -5.328h 0.704v 4.048h -0.704Z "/></symbol><symbol id="g64E30DDCA85D998B4833244C6CC4286A" overflow="visible"><path d="M 0 0m 0.56 0h 0.72v 2.984c 0.256 0.296 0.6 0.568 1.096 0.568c 0.584 0 0.848 -0.384 0.848 -0.976v -2.576h 0.712v 2.576c 0 0.92 -0.432 1.536 -1.352 1.536c -0.64 0 -1.04 -0.304 -1.352 -0.648c -0.032 0.44 -0.056 0.584 -0.24 0.584h -0.432Z "/></symbol><symbol id="gE063C875BC6F75E0CBBE196B966878F4" overflow="visible"><path d="M 0 0m 0.2184 1.0136c 0.1792 -0.5544 0.4704 -1.0584 1.3832 -1.0584c 0.6776 0 1.3496 0.4032 1.3496 1.2152c 0 0.5432 -0.308 0.8232 -0.7616 0.9464c 0.3472 0.1232 0.6776 0.3472 0.6776 0.9184c 0 0.532 -0.4032 1.0304 -1.1928 1.0304c -1.0584 0 -1.288 -0.8232 -1.3328 -1.1424c 0 0 0.336 -0.0616 0.364 -0.0616c 0.1232 0 0.1736 0.0616 0.2128 0.1736c 0.0784 0.3248 0.3304 0.5544 0.728 0.5544c 0.4144 0 0.6664 -0.2352 0.6664 -0.6496c 0 -0.5096 -0.392 -0.672 -0.9184 -0.672v -0.4088c 0.616 0 0.9912 -0.1456 0.9912 -0.7112c 0 -0.2968 -0.224 -0.7112 -0.7952 -0.7112c -0.4648 0 -0.6664 0.2856 -0.8064 0.5992c -0.0336 0.0728 -0.1064 0.1064 -0.1848 0.1064c -0.0616 0 -0.2184 -0.0616 -0.3808 -0.1288Z "/></symbol><symbol id="gECD731C578433DACAA1D62C05F22F39C" overflow="visible"><path d="M 0 0m 0.3724 2.6215l 0.1568 -0.2156c 0.0245 -0.0392 0.0784 -0.0588 0.1274 -0.0588c 0.0392 0 0.0784 0.0147 0.1078 0.0392l 0.5831 0.4998c -0.0049 -0.0784 -0.0098 -0.1568 -0.0098 -0.2352v -2.2785h -0.735v -0.3724h 1.9061v 0.3724h -0.6713v 3.1556h -0.4067Z "/></symbol><symbol id="g7544D3D0CD68A872F22547E84D6C5ACB" overflow="visible"><path d="M 0 0m 0.2156 0h 2.3716v 0.2989c 0 0.1029 -0.0686 0.1666 -0.1715 0.1666h -1.0829c -0.1519 0 -0.2891 -0.0294 -0.4116 -0.0637l 0.8771 0.9016c 0.4067 0.4165 0.7252 0.7546 0.7252 1.2691c 0 0.539 -0.3724 0.9849 -1.0731 0.9849c -0.784 0 -1.0976 -0.5194 -1.1662 -0.9996c 0 0 0.294 -0.0539 0.3185 -0.0539c 0.1078 0 0.1519 0.0539 0.1862 0.1519c 0.0735 0.2793 0.2891 0.4851 0.637 0.4851c 0.3675 0 0.588 -0.2156 0.588 -0.5831c 0 -0.3969 -0.2352 -0.6958 -0.6027 -1.0682l -1.1025 -1.1172c -0.049 -0.049 -0.0931 -0.1176 -0.0931 -0.2058Z "/></symbol><symbol id="gEB2988F43CCB186328827BE124F4D454" overflow="visible"><path d="M 0 0m 0.574 3.738l 0.196 -0.273c 0.028 -0.049 0.098 -0.07 0.161 -0.07c 0.049 0 0.098 0.014 0.133 0.049l 0.896 0.763c -0.007 -0.105 -0.014 -0.21 -0.014 -0.315v -3.416h -1.071v -0.476h 2.688v 0.476h -0.987v 4.55h -0.504Z "/></symbol><symbol id="g4F5EBA454D6779203DE0890AFB7FE1C5" overflow="visible"><path d="M 0 0m 1.808 -0.064q -0.48 0 -0.738 0.268q -0.258 0.268 -0.258 0.772v 2.48h -0.488q -0.064 0 -0.108 0.038q -0.044 0.038 -0.044 0.118v 0.284l 0.664 0.084l 0.164 1.252q 0.012 0.06 0.054 0.098q 0.042 0.038 0.11 0.038h 0.36v -1.396h 1.172v -0.516h -1.172v -2.432q 0 -0.256 0.124 -0.38q 0.124 -0.124 0.32 -0.124q 0.112 0 0.194 0.03q 0.082 0.03 0.142 0.066q 0.06 0.036 0.102 0.066q 0.042 0.03 0.074 0.03q 0.056 0 0.1 -0.068l 0.208 -0.34q -0.184 -0.172 -0.444 -0.27q -0.26 -0.098 -0.536 -0.098Z "/></symbol><symbol id="g6C67810DC349E282DBB007EA01A1B447" overflow="visible"><path d="M 0 0m 1.316 4.052v -4.052h -0.712v 4.052h 0.712Z m 0.152 1.272q 0 -0.104 -0.042 -0.194q -0.042 -0.09 -0.112 -0.16q -0.07 -0.07 -0.164 -0.11q -0.094 -0.04 -0.198 -0.04q -0.104 0 -0.194 0.04q -0.09 0.04 -0.158 0.11q -0.068 0.07 -0.108 0.16q -0.04 0.09 -0.04 0.194q 0 0.104 0.04 0.198q 0.04 0.094 0.108 0.164q 0.068 0.07 0.158 0.11q 0.09 0.04 0.194 0.04q 0.104 0 0.198 -0.04q 0.094 -0.04 0.164 -0.11q 0.07 -0.07 0.112 -0.164q 0.042 -0.094 0.042 -0.198Z "/></symbol><symbol id="gF21B5D037BB26DF9C2CD3272E79399AE" overflow="visible"><path d="M 0 0m 1.236 3.464q 0.132 0.148 0.28 0.268q 0.148 0.12 0.314 0.206q 0.166 0.086 0.352 0.132q 0.186 0.046 0.402 0.046q 0.332 0 0.586 -0.11q 0.254 -0.11 0.424 -0.312q 0.17 -0.202 0.258 -0.486q 0.088 -0.284 0.088 -0.628v -2.58h -0.716v 2.58q 0 0.46 -0.21 0.714q -0.21 0.254 -0.638 0.254q -0.316 0 -0.59 -0.152q -0.274 -0.152 -0.506 -0.412v -2.984h -0.716v 4.052h 0.428q 0.152 0 0.188 -0.148l 0.056 -0.44Z "/></symbol><symbol id="gD8EB556C02B64E161F8CC2665579827D" overflow="visible"><path d="M 0 0m 1.976 1.98q 0.216 0 0.38 0.06q 0.164 0.06 0.276 0.168q 0.112 0.108 0.168 0.258q 0.056 0.15 0.056 0.33q 0 0.372 -0.226 0.592q -0.226 0.22 -0.654 0.22q -0.432 0 -0.658 -0.22q -0.226 -0.22 -0.226 -0.592q 0 -0.18 0.058 -0.33q 0.058 -0.15 0.17 -0.258q 0.112 -0.108 0.276 -0.168q 0.164 -0.06 0.38 -0.06Z m 1.284 -2.2q 0 0.148 -0.084 0.24q -0.084 0.092 -0.226 0.144q -0.142 0.052 -0.33 0.074q -0.188 0.022 -0.398 0.034q -0.21 0.012 -0.426 0.024q -0.216 0.012 -0.416 0.04q -0.224 -0.104 -0.366 -0.262q -0.142 -0.158 -0.142 -0.37q 0 -0.136 0.07 -0.254q 0.07 -0.118 0.214 -0.204q 0.144 -0.086 0.362 -0.136q 0.218 -0.05 0.514 -0.05q 0.288 0 0.516 0.052q 0.228 0.052 0.386 0.148q 0.158 0.096 0.242 0.228q 0.084 0.132 0.084 0.292Z m 0.724 4.112v -0.264q 0 -0.132 -0.168 -0.168l -0.46 -0.06q 0.136 -0.264 0.136 -0.584q 0 -0.296 -0.114 -0.538q -0.114 -0.242 -0.314 -0.414q -0.2 -0.172 -0.48 -0.264q -0.28 -0.092 -0.608 -0.092q -0.284 0 -0.536 0.068q -0.128 -0.08 -0.196 -0.17q -0.068 -0.09 -0.068 -0.182q 0 -0.144 0.118 -0.218q 0.118 -0.074 0.31 -0.106q 0.192 -0.032 0.438 -0.04q 0.246 -0.008 0.504 -0.026q 0.258 -0.018 0.504 -0.062q 0.246 -0.044 0.438 -0.144q 0.192 -0.1 0.31 -0.276q 0.118 -0.176 0.118 -0.456q 0 -0.26 -0.13 -0.504q -0.13 -0.244 -0.374 -0.434q -0.244 -0.19 -0.598 -0.304q -0.354 -0.114 -0.798 -0.114q -0.444 0 -0.776 0.088q -0.332 0.088 -0.552 0.236q -0.22 0.148 -0.33 0.342q -0.11 0.194 -0.11 0.406q 0 0.3 0.188 0.508q 0.188 0.208 0.516 0.332q -0.18 0.08 -0.286 0.214q -0.106 0.134 -0.106 0.362q 0 0.088 0.032 0.182q 0.032 0.094 0.098 0.188q 0.066 0.094 0.162 0.178q 0.096 0.084 0.224 0.148q -0.3 0.168 -0.468 0.446q -0.168 0.278 -0.168 0.646q 0 0.296 0.114 0.538q 0.114 0.242 0.318 0.412q 0.204 0.17 0.486 0.262q 0.282 0.092 0.618 0.092q 0.264 0 0.492 -0.058q 0.228 -0.058 0.416 -0.17h 1.1Z "/></symbol><symbol id="g2E83E0A2BD3D0E506E566F3A4A66C246" overflow="visible"><path d="M 0 0m 1.3 5.892v -5.892h -0.712v 5.892h 0.712Z "/></symbol><symbol id="g173C65C3B464FC32445BBFB6797A9CF3" overflow="visible"><path d="M 0 0m 3.276 2.468q 0 0.248 -0.07 0.454q -0.07 0.206 -0.204 0.356q -0.134 0.15 -0.326 0.232q -0.192 0.082 -0.436 0.082q -0.512 0 -0.81 -0.298q -0.298 -0.298 -0.37 -0.826h 2.216Z m 0.576 -1.9q -0.132 -0.16 -0.316 -0.278q -0.184 -0.118 -0.394 -0.194q -0.21 -0.076 -0.434 -0.114q -0.224 -0.038 -0.444 -0.038q -0.42 0 -0.774 0.142q -0.354 0.142 -0.612 0.416q -0.258 0.274 -0.402 0.678q -0.144 0.404 -0.144 0.928q 0 0.424 0.13 0.792q 0.13 0.368 0.374 0.638q 0.244 0.27 0.596 0.424q 0.352 0.154 0.792 0.154q 0.364 0 0.674 -0.122q 0.31 -0.122 0.536 -0.352q 0.226 -0.23 0.354 -0.568q 0.128 -0.338 0.128 -0.77q 0 -0.168 -0.036 -0.224q -0.036 -0.056 -0.136 -0.056h -2.708q 0.012 -0.384 0.106 -0.668q 0.094 -0.284 0.262 -0.474q 0.168 -0.19 0.4 -0.284q 0.232 -0.094 0.52 -0.094q 0.268 0 0.462 0.062q 0.194 0.062 0.334 0.134q 0.14 0.072 0.234 0.134q 0.094 0.062 0.162 0.062q 0.088 0 0.136 -0.068l 0.2 -0.26Z "/></symbol><symbol id="g7685AC247E0E5F790529712D85B5CA3" overflow="visible"><path d="M 0 0m 3.204 3.092q -0.192 0.256 -0.428 0.366q -0.236 0.11 -0.524 0.11q -0.564 0 -0.868 -0.404q -0.304 -0.404 -0.304 -1.152q 0 -0.396 0.068 -0.678q 0.068 -0.282 0.2 -0.464q 0.132 -0.182 0.324 -0.266q 0.192 -0.084 0.436 -0.084q 0.352 0 0.614 0.16q 0.262 0.16 0.482 0.452v 1.96Z m 0.712 0.96v -5.424h -0.712v 1.976q -0.252 -0.296 -0.58 -0.478q -0.328 -0.182 -0.748 -0.182q -0.348 0 -0.632 0.134q -0.284 0.134 -0.484 0.394q -0.2 0.26 -0.308 0.648q -0.108 0.388 -0.108 0.892q 0 0.448 0.12 0.834q 0.12 0.386 0.344 0.67q 0.224 0.284 0.55 0.446q 0.326 0.162 0.734 0.162q 0.396 0 0.672 -0.14q 0.276 -0.14 0.488 -0.392l 0.048 0.312q 0.04 0.148 0.192 0.148h 0.424Z "/></symbol><symbol id="g2693B7DFF60489EC54D938AFADF81B13" overflow="visible"><path d="M 0 0m 3.896 4.052v -4.052h -0.424q -0.152 0 -0.192 0.148l -0.056 0.436q -0.264 -0.292 -0.592 -0.47q -0.328 -0.178 -0.752 -0.178q -0.332 0 -0.586 0.11q -0.254 0.11 -0.426 0.31q -0.172 0.2 -0.258 0.484q -0.086 0.284 -0.086 0.628v 2.584h 0.712v -2.584q 0 -0.46 0.21 -0.712q 0.21 -0.252 0.642 -0.252q 0.316 0 0.59 0.15q 0.274 0.15 0.506 0.414v 2.984h 0.712Z "/></symbol><symbol id="gF443B90E501BA466DAEC029E2936BD2A" overflow="visible"><path d="M 0 0m 3.204 3.088q -0.2 0.268 -0.432 0.374q -0.232 0.106 -0.52 0.106q -0.564 0 -0.868 -0.404q -0.304 -0.404 -0.304 -1.152q 0 -0.396 0.068 -0.678q 0.068 -0.282 0.2 -0.464q 0.132 -0.182 0.324 -0.266q 0.192 -0.084 0.436 -0.084q 0.352 0 0.614 0.16q 0.262 0.16 0.482 0.452v 1.956Z m 0.712 2.804v -5.892h -0.424q -0.152 0 -0.192 0.148l -0.064 0.492q -0.26 -0.312 -0.592 -0.504q -0.332 -0.192 -0.768 -0.192q -0.348 0 -0.632 0.134q -0.284 0.134 -0.484 0.394q -0.2 0.26 -0.308 0.648q -0.108 0.388 -0.108 0.892q 0 0.448 0.12 0.834q 0.12 0.386 0.344 0.67q 0.224 0.284 0.55 0.446q 0.326 0.162 0.734 0.162q 0.372 0 0.638 -0.126q 0.266 -0.126 0.474 -0.35v 2.244h 0.712Z "/></symbol><symbol id="gC55E37F317CFE7DA11DFCABDFA1DEA22" overflow="visible"><path d="M 0 0m 2.272 4.116q 0.444 0 0.8 -0.148q 0.356 -0.148 0.608 -0.42q 0.252 -0.272 0.386 -0.658q 0.134 -0.386 0.134 -0.862q 0 -0.48 -0.134 -0.864q -0.134 -0.384 -0.386 -0.656q -0.252 -0.272 -0.608 -0.418q -0.356 -0.146 -0.8 -0.146q -0.448 0 -0.806 0.146q -0.358 0.146 -0.61 0.418q -0.252 0.272 -0.386 0.656q -0.134 0.384 -0.134 0.864q 0 0.476 0.134 0.862q 0.134 0.386 0.386 0.658q 0.252 0.272 0.61 0.42q 0.358 0.148 0.806 0.148Z m 0 -3.616q 0.6 0 0.896 0.402q 0.296 0.402 0.296 1.122q 0 0.724 -0.296 1.128q -0.296 0.404 -0.896 0.404q -0.304 0 -0.53 -0.104q -0.226 -0.104 -0.376 -0.3q -0.15 -0.196 -0.224 -0.482q -0.074 -0.286 -0.074 -0.646q 0 -0.72 0.298 -1.122q 0.298 -0.402 0.906 -0.402Z m 1.228 4.176h -0.476q -0.044 0 -0.09 0.016q -0.046 0.016 -0.09 0.06l -0.492 0.528q -0.036 0.032 -0.064 0.076q -0.02 -0.02 -0.036 -0.04q -0.016 -0.02 -0.032 -0.036l -0.496 -0.528q -0.084 -0.076 -0.18 -0.076h -0.492l 0.892 1.056h 0.664l 0.892 -1.056Z "/></symbol><symbol id="gE719EDE402D5F3C405992F43B216315E" overflow="visible"><path d="M 0 0m 4.072 0.544v -0.544h -3.072v 0.544h 1.228v 3.908q 0 0.176 0.012 0.356l -1.02 -0.876q -0.052 -0.044 -0.104 -0.054q -0.052 -0.01 -0.096 -0.002q -0.044 0.008 -0.082 0.032q -0.038 0.024 -0.058 0.052l -0.224 0.308l 1.708 1.476h 0.58v -5.2h 1.128Z "/></symbol></defs></svg>