<svg viewBox="0 0 166.17366283 98.958047244" width="166.17366283pt" height="98.958047244pt" xmlns="http://www.w3.org/2000/svg" xmlns:xlink="http://www.w3.org/1999/xlink" xmlns:h5="http://www.w3.org/1999/xhtml"><path fill="#ffffff" fill-rule="nonzero" d="M 0 0v 98.958047244h 166.17366283v -98.958047244Z "/><g transform="translate(6 6)"><path fill="none" stroke="#000000" stroke-width="0.25" stroke-linecap="butt" stroke-linejoin="miter" stroke-miterlimit="4" stroke-dashoffset="0" stroke-dasharray="0.25 2" transform="translate(4.68755 13.257259843)" d="M 0 0m 0 70.866141732v -70.866141732"/><path fill="none" stroke="#000000" stroke-width="0.25" stroke-linecap="butt" stroke-linejoin="miter" stroke-miterlimit="4" stroke-dashoffset="0" stroke-dasharray="0.25 2" transform="translate(18.045503015 13.257259843)" d="M 0 0m 0 70.866141732v -70.866141732"/><path fill="none" stroke="#000000" stroke-width="0.25" stroke-linecap="butt" stroke-linejoin="miter" stroke-miterlimit="4" stroke-dashoffset="0" stroke-dasharray="0.25 2" transform="translate(31.403456031 13.257259843)" d="M 0 0m 0 70.866141732v -70.866141732"/><path fill="none" stroke="#000000" stroke-width="0.25" stroke-linecap="butt" stroke-linejoin="miter" stroke-miterlimit="4" stroke-dashoffset="0" stroke-dasharray="0.25 2" transform="translate(44.761409046 13.257259843)" d="M 0 0m 0 70.866141732v -70.866141732"/><path fill="none" stroke="#000000" stroke-width="0.25" stroke-linecap="butt" stroke-linejoin="miter" stroke-miterlimit="4" stroke-dashoffset="0" stroke-dasharray="0.25 2" transform="translate(58.119362061 13.257259843)" d="M 0 0m 0 70.866141732v -70.866141732"/><path fill="none" stroke="#000000" stroke-width="0.25" stroke-linecap="butt" stroke-linejoin="miter" stroke-miterlimit="4" stroke-dashoffset="0" stroke-dasharray="0.25 2" transform="translate(71.477315076 13.257259843)" d="M 0 0m 0 70.866141732v -70.866141732"/><path fill="none" stroke="#000000" stroke-width="0.25" stroke-linecap="butt" stroke-linejoin="miter" stroke-miterlimit="4" stroke-dashoffset="0" stroke-dasharray="0.25 2" transform="translate(84.835268092 13.257259843)" d="M 0 0m 0 70.866141732v -70.866141732"/><path fill="none" stroke="#000000" stroke-width="0.25" stroke-linecap="butt" stroke-linejoin="miter" stroke-miterlimit="4" stroke-dashoffset="0" stroke-dasharray="0.25 2" transform="translate(98.193221107 13.257259843)" d="M 0 0m 0 70.866141732v -70.866141732"/><path fill="none" stroke="#000000" stroke-width="0.25" stroke-linecap="butt" stroke-linejoin="miter" stroke-miterlimit="4" stroke-dashoffset="0" stroke-dasharray="0.25 2" transform="translate(111.551174122 13.257259843)" d="M 0 0m 0 70.866141732v -70.866141732"/><path fill="none" stroke="#000000" stroke-width="0.25" stroke-linecap="butt" stroke-linejoin="miter" stroke-miterlimit="4" stroke-dashoffset="0" stroke-dasharray="0.25 2" transform="translate(124.909127137 13.257259843)" d="M 0 0m 0 70.866141732v -70.866141732"/><path fill="none" stroke="#000000" stroke-width="0.25" stroke-linecap="butt" stroke-linejoin="miter" stroke-miterlimit="4" stroke-dashoffset="0" stroke-dasharray="0.25 2" transform="translate(138.267080153 13.257259843)" d="M 0 0m 0 70.866141732v -70.866141732"/><path fill="none" stroke="#000000" stroke-width="0.25" stroke-linecap="butt" stroke-linejoin="miter" stroke-miterlimit="4" stroke-dashoffset="0" stroke-dasharray="0.25 2" transform="translate(4.68755 77.036787402)" d="M 0 0h 133.579530153"/><path fill="none" stroke="#000000" stroke-width="0.25" stroke-linecap="butt" stroke-linejoin="miter" stroke-miterlimit="4" stroke-dashoffset="0" stroke-dasharray="0.25 2" transform="translate(4.68755 62.863559055)" d="M 0 0h 133.579530153"/><path fill="none" stroke="#000000" stroke-width="0.25" stroke-linecap="butt" stroke-linejoin="miter" stroke-miterlimit="4" stroke-dashoffset="0" stroke-dasharray="0.25 2" transform="translate(4.68755 48.690330709)" d="M 0 0h 133.579530153"/><path fill="none" stroke="#000000" stroke-width="0.25" stroke-linecap="butt" stroke-linejoin="miter" stroke-miterlimit="4" stroke-dashoffset="0" stroke-dasharray="0.25 2" transform="translate(4.68755 34.517102362)" d="M 0 0h 133.579530153"/><path fill="none" stroke="#000000" stroke-width="0.25" stroke-linecap="butt" stroke-linejoin="miter" stroke-miterlimit="4" stroke-dashoffset="0" stroke-dasharray="0.25 2" transform="translate(4.68755 20.343874016)" d="M 0 0h 133.579530153"/><path fill="none" stroke="#000000" stroke-width="0.6" stroke-linecap="butt" stroke-linejoin="miter" stroke-miterlimit="4" transform="translate(1.852904331 48.690330709)" d="M 0 0h 139.811743951"/><path fill="#000000" fill-rule="nonzero" stroke="#000000" stroke-width="0.6" stroke-linecap="butt" stroke-linejoin="miter" stroke-miterlimit="4" stroke-dashoffset="0" stroke-dasharray="" transform="translate(141.664648283 46.564346457)" d="M 0 0m 5.669291339 2.125984252l -5.669291339 2.125984252v -4.251968504l 5.669291339 2.125984252Z "/><path fill="none" stroke="#000000" stroke-width="0.6" stroke-linecap="butt" stroke-linejoin="miter" stroke-miterlimit="4" transform="translate(31.403456031 9.859691713)" d="M 0 0m 0 77.098355531v -77.098355531"/><path fill="#000000" fill-rule="nonzero" stroke="#000000" stroke-width="0.6" stroke-linecap="butt" stroke-linejoin="miter" stroke-miterlimit="4" stroke-dashoffset="0" stroke-dasharray="" transform="translate(29.277471779 4.190400373)" d="M 0 0m 2.125984252 0l 2.125984252 5.669291339h -4.251968504l 2.125984252 -5.669291339Z "/><path fill="none" transform="translate(149.60566283 50.107653543)" d="M 0 0h 4.568v 5.296h -4.568v -5.296Z "/><g transform="translate(149.605662814 50.107653417)"><g transform="matrix(1 0 0 -1 0 5.296)"><use xlink:href="#g4A5F97377F1F71DC3C4229374DE6718C" x="0" y="0" fill="#000000" fill-rule="nonzero"/></g></g><path fill="none" transform="translate(33.671172566)" d="M 0 0h 4.168v 6.672h -4.168v -6.672Z "/><g transform="translate(33.671172534 -9.4e-8)"><g transform="matrix(1 0 0 -1 0 5.296)"><use xlink:href="#g200C0C0323B765BEEE11F3C809DF2C0A" x="0" y="0" fill="#000000" fill-rule="nonzero"/></g></g><path fill="none" stroke="#000000" stroke-width="0.5" stroke-linecap="butt" stroke-linejoin="miter" stroke-miterlimit="4" transform="translate(4.68755 46.989543307)" d="M 0 0m 0 3.401574803v -3.401574803"/><path fill="none" transform="translate(0 51.524976378)" d="M 0 0h 9.3751v 7.994h -9.3751v -7.994Z "/><g transform="translate(-7.9e-8 51.524976315)"><g transform="matrix(1 0 0 -1 0 4.634)"><use xlink:href="#g8094517B9CE2380B92FC0900E953A143" x="0" y="0" fill="#000000" fill-rule="nonzero"/></g><g transform="matrix(1 0 0 -1 5.495 1.484)"><use xlink:href="#g358484E47359767C206F597C01997C82" x="0" y="0" fill="#000000" fill-rule="nonzero"/></g><g transform="matrix(1 0 0 -1 5.66405 7.994)"><use xlink:href="#g7544D3D0CD68A872F22547E84D6C5ACB" x="0" y="0" fill="#000000" fill-rule="nonzero"/></g><path fill="none" stroke="#000000" stroke-width="0.462" stroke-linecap="butt" stroke-linejoin="miter" stroke-miterlimit="4" transform="translate(5.495 2.674)" d="M 0 0h 3.1801"/></g><path fill="none" stroke="#000000" stroke-width="0.5" stroke-linecap="butt" stroke-linejoin="miter" stroke-miterlimit="4" transform="translate(18.045503015 46.989543307)" d="M 0 0m 0 3.401574803v -3.401574803"/><path fill="none" stroke="#000000" stroke-width="0.5" stroke-linecap="butt" stroke-linejoin="miter" stroke-miterlimit="4" transform="translate(31.403456031 46.989543307)" d="M 0 0m 0 3.401574803v -3.401574803"/><path fill="none" stroke="#000000" stroke-width="0.5" stroke-linecap="butt" stroke-linejoin="miter" stroke-miterlimit="4" transform="translate(44.761409046 46.989543307)" d="M 0 0m 0 3.401574803v -3.401574803"/><path fill="none" stroke="#000000" stroke-width="0.5" stroke-linecap="butt" stroke-linejoin="miter" stroke-miterlimit="4" transform="translate(58.119362061 46.989543307)" d="M 0 0m 0 3.401574803v -3.401574803"/><path fill="none" transform="translate(55.829312061 51.524976378)" d="M 0 0h 4.5801v 7.994h -4.5801v -7.994Z "/><g transform="translate(55.829311919 51.524976315)"><g transform="matrix(1 0 0 -1 0.7 1.484)"><use xlink:href="#g358484E47359767C206F597C01997C82" x="0" y="0" fill="#000000" fill-rule="nonzero"/></g><g transform="matrix(1 0 0 -1 0.86905 7.994)"><use xlink:href="#g7544D3D0CD68A872F22547E84D6C5ACB" x="0" y="0" fill="#000000" fill-rule="nonzero"/></g><path fill="none" stroke="#000000" stroke-width="0.462" stroke-linecap="butt" stroke-linejoin="miter" stroke-miterlimit="4" transform="translate(0.7 2.674)" d="M 0 0h 3.1801"/></g><path fill="none" stroke="#000000" stroke-width="0.5" stroke-linecap="butt" stroke-linejoin="miter" stroke-miterlimit="4" transform="translate(71.477315076 46.989543307)" d="M 0 0m 0 3.401574803v -3.401574803"/><path fill="none" stroke="#000000" stroke-width="0.5" stroke-linecap="butt" stroke-linejoin="miter" stroke-miterlimit="4" transform="translate(84.835268092 46.989543307)" d="M 0 0m 0 3.401574803v -3.401574803"/><path fill="none" transform="translate(82.549768092 51.524976378)" d="M 0 0h 4.571v 4.662h -4.571v -4.662Z "/><g transform="translate(82.549767981 51.524976236)"><g transform="matrix(1 0 0 -1 0 4.634)"><use xlink:href="#g2AA740EB99D3EDE7BE073C37D483206A" x="0" y="0" fill="#000000" fill-rule="nonzero"/></g></g><path fill="none" stroke="#000000" stroke-width="0.5" stroke-linecap="butt" stroke-linejoin="miter" stroke-miterlimit="4" transform="translate(98.193221107 46.989543307)" d="M 0 0m 0 3.401574803v -3.401574803"/><path fill="none" stroke="#000000" stroke-width="0.5" stroke-linecap="butt" stroke-linejoin="miter" stroke-miterlimit="4" transform="translate(111.551174122 46.989543307)" d="M 0 0m 0 3.401574803v -3.401574803"/><path fill="none" transform="translate(107.840124122 51.524976378)" d="M 0 0h 7.4221v 7.994h -7.4221v -7.994Z "/><g transform="translate(107.840124043 51.524976315)"><g transform="matrix(1 0 0 -1 0.7 1.484)"><use xlink:href="#g13FF20E727A5D9E172198D6EDF889519" x="0" y="0" fill="#000000" fill-rule="nonzero"/></g><g transform="matrix(1 0 0 -1 3.542 1.484)"><use xlink:href="#g358484E47359767C206F597C01997C82" x="0" y="0" fill="#000000" fill-rule="nonzero"/></g><g transform="matrix(1 0 0 -1 2.29005 7.994)"><use xlink:href="#g7544D3D0CD68A872F22547E84D6C5ACB" x="0" y="0" fill="#000000" fill-rule="nonzero"/></g><path fill="none" stroke="#000000" stroke-width="0.462" stroke-linecap="butt" stroke-linejoin="miter" stroke-miterlimit="4" transform="translate(0.7 2.674)" d="M 0 0h 6.0221"/></g><path fill="none" stroke="#000000" stroke-width="0.5" stroke-linecap="butt" stroke-linejoin="miter" stroke-miterlimit="4" transform="translate(124.909127137 46.989543307)" d="M 0 0m 0 3.401574803v -3.401574803"/><path fill="none" stroke="#000000" stroke-width="0.5" stroke-linecap="butt" stroke-linejoin="miter" stroke-miterlimit="4" transform="translate(138.267080153 46.989543307)" d="M 0 0m 0 3.401574803v -3.401574803"/><path fill="none" transform="translate(133.951580153 51.524976378)" d="M 0 0h 8.631v 4.662h -8.631v -4.662Z "/><g transform="translate(133.951580011 51.524976236)"><g transform="matrix(1 0 0 -1 0 4.634)"><use xlink:href="#gE9246A48E1D20E59CFA000C3E7658370" x="0" y="0" fill="#000000" fill-rule="nonzero"/></g><g transform="matrix(1 0 0 -1 4.06 4.634)"><use xlink:href="#g2AA740EB99D3EDE7BE073C37D483206A" x="0" y="0" fill="#000000" fill-rule="nonzero"/></g></g><path fill="none" stroke="#000000" stroke-width="0.5" stroke-linecap="butt" stroke-linejoin="miter" stroke-miterlimit="4" transform="translate(29.702668629 77.036787402)" d="M 0 0h 3.401574803"/><path fill="none" transform="translate(19.713810361 74.719787402)" d="M 0 0h 8.855v 4.634h -8.855v -4.634Z "/><g transform="translate(19.713810251 74.719787291)"><g transform="matrix(1 0 0 -1 0 4.634)"><use xlink:href="#g8094517B9CE2380B92FC0900E953A143" x="0" y="0" fill="#000000" fill-rule="nonzero"/><use xlink:href="#gE9246A48E1D20E59CFA000C3E7658370" x="4.795" y="0" fill="#000000" fill-rule="nonzero"/></g></g><path fill="none" stroke="#000000" stroke-width="0.5" stroke-linecap="butt" stroke-linejoin="miter" stroke-miterlimit="4" transform="translate(29.702668629 62.863559055)" d="M 0 0h 3.401574803"/><path fill="none" transform="translate(19.713810361 60.546559055)" d="M 0 0h 8.855v 4.634h -8.855v -4.634Z "/><g transform="translate(19.713810251 60.546558945)"><g transform="matrix(1 0 0 -1 0 4.634)"><use xlink:href="#g8094517B9CE2380B92FC0900E953A143" x="0" y="0" fill="#000000" fill-rule="nonzero"/><use xlink:href="#gEB2988F43CCB186328827BE124F4D454" x="4.795" y="0" fill="#000000" fill-rule="nonzero"/></g></g><path fill="none" stroke="#000000" stroke-width="0.5" stroke-linecap="butt" stroke-linejoin="miter" stroke-miterlimit="4" transform="translate(29.702668629 48.690330709)" d="M 0 0h 3.401574803"/><path fill="none" stroke="#000000" stroke-width="0.5" stroke-linecap="butt" stroke-linejoin="miter" stroke-miterlimit="4" transform="translate(29.702668629 34.517102362)" d="M 0 0h 3.401574803"/><path fill="none" transform="translate(24.508810361 32.200102362)" d="M 0 0h 4.06v 4.634h -4.06v -4.634Z "/><g transform="translate(24.50881033 32.200102252)"><g transform="matrix(1 0 0 -1 0 4.634)"><use xlink:href="#gEB2988F43CCB186328827BE124F4D454" x="0" y="0" fill="#000000" fill-rule="nonzero"/></g></g><path fill="none" stroke="#000000" stroke-width="0.5" stroke-linecap="butt" stroke-linejoin="miter" stroke-miterlimit="4" transform="translate(29.702668629 20.343874016)" d="M 0 0h 3.401574803"/><path fill="none" transform="translate(24.508810361 18.026874016)" d="M 0 0h 4.06v 4.634h -4.06v -4.634Z "/><g transform="translate(24.50881033 18.026873906)"><g transform="matrix(1 0 0 -1 0 4.634)"><use xlink:href="#gE9246A48E1D20E59CFA000C3E7658370" x="0" y="0" fill="#000000" fill-rule="nonzero"/></g></g><path fill="none" transform="translate(25.075739495 50.958047244)" d="M 0 0h 4.06v 4.69h -4.06v -4.69Z "/><g transform="translate(25.075739464 50.958047213)"><g transform="matrix(1 0 0 -1 0 4.634)"><use xlink:href="#g795174D0217B50A2814BBCD05E6B8168" x="0" y="0" fill="#000000" fill-rule="nonzero"/></g></g></g><defs><symbol id="g4A5F97377F1F71DC3C4229374DE6718C" overflow="visible"><path d="M 0 0m 0.08 0h 0.624c 0.104 0 0.152 0.072 0.208 0.136l 1.104 1.472c 0.032 0.048 0.064 0.096 0.088 0.152l 0.76 -1.616c 0.04 -0.08 0.088 -0.144 0.2 -0.144h 0.632l -1.072 2.176l 1.44 1.872h -0.64c -0.072 0 -0.12 -0.048 -0.168 -0.112l -0.92 -1.208l -0.096 -0.168l -0.68 1.392c -0.032 0.072 -0.072 0.096 -0.176 0.096h -0.632l 0.968 -1.872Z "/></symbol><symbol id="g200C0C0323B765BEEE11F3C809DF2C0A" overflow="visible"><path d="M 0 0m 0.24 4.048l 1.056 -3.808l -0.88 -1.616h 0.52c 0.136 0 0.192 0.08 0.248 0.168l 2.736 5.256h -0.56c -0.096 0 -0.168 -0.064 -0.208 -0.136l -1.28 -2.552c -0.056 -0.096 -0.104 -0.232 -0.152 -0.344c -0.008 0.12 -0.032 0.232 -0.056 0.336l -0.648 2.552c -0.032 0.088 -0.064 0.144 -0.184 0.144Z "/></symbol><symbol id="g8094517B9CE2380B92FC0900E953A143" overflow="visible"><path d="M 0 0m 0.448 1.729h 3.899v 0.462h -3.899Z "/></symbol><symbol id="g358484E47359767C206F597C01997C82" overflow="visible"><path d="M 0 0m 0.1813 0.0784c 0 -0.0735 0.0686 -0.098 0.1911 -0.098c 0.49 0 0.7497 0.7301 0.9408 2.1021h 0.7546c -0.1029 -0.6419 -0.2499 -1.078 -0.2499 -1.4749c 0 -0.3773 0.1225 -0.6223 0.4753 -0.6223c 0.1519 0 0.3136 0.0441 0.3332 0.1666l 0.0245 0.196h -0.098c -0.1764 0 -0.2156 0.1617 -0.2156 0.5488c 0 0.4606 0.0294 0.8134 0.1127 1.1858h 0.3234c 0.1029 0 0.1666 0.0735 0.1764 0.1617l 0.0245 0.2303h -2.3324c -0.1078 0 -0.2009 -0.0784 -0.2156 -0.1813l -0.0245 -0.2107h 0.4802c -0.0735 -0.4998 -0.3038 -1.6709 -0.6125 -1.6709h -0.049Z "/></symbol><symbol id="g7544D3D0CD68A872F22547E84D6C5ACB" overflow="visible"><path d="M 0 0m 0.2156 0h 2.3716v 0.2989c 0 0.1029 -0.0686 0.1666 -0.1715 0.1666h -1.0829c -0.1519 0 -0.2891 -0.0294 -0.4116 -0.0637l 0.8771 0.9016c 0.4067 0.4165 0.7252 0.7546 0.7252 1.2691c 0 0.539 -0.3724 0.9849 -1.0731 0.9849c -0.784 0 -1.0976 -0.5194 -1.1662 -0.9996c 0 0 0.294 -0.0539 0.3185 -0.0539c 0.1078 0 0.1519 0.0539 0.1862 0.1519c 0.0735 0.2793 0.2891 0.4851 0.637 0.4851c 0.3675 0 0.588 -0.2156 0.588 -0.5831c 0 -0.3969 -0.2352 -0.6958 -0.6027 -1.0682l -1.1025 -1.1172c -0.049 -0.049 -0.0931 -0.1176 -0.0931 -0.2058Z "/></symbol><symbol id="g2AA740EB99D3EDE7BE073C37D483206A" overflow="visible"><path d="M 0 0m 0.21 0.098c 0 -0.091 0.063 -0.126 0.245 -0.126c 0.777 0 1.092 1.456 1.316 3.045h 1.148c -0.196 -1.281 -0.35 -1.568 -0.35 -2.163c 0 -0.532 0.154 -0.875 0.644 -0.875c 0.196 0 0.413 0.056 0.434 0.21l 0.028 0.252h -0.126c -0.273 0 -0.329 0.231 -0.329 0.777c 0 0.714 0.07 1.218 0.189 1.799h 0.476c 0.133 0 0.21 0.091 0.224 0.203l 0.028 0.294h -3.304c -0.133 0 -0.252 -0.105 -0.273 -0.238l -0.035 -0.259h 0.7c -0.105 -0.749 -0.469 -2.499 -0.896 -2.499h -0.07Z "/></symbol><symbol id="g13FF20E727A5D9E172198D6EDF889519" overflow="visible"><path d="M 0 0m 0.1911 0.8869c 0.1568 -0.4851 0.4116 -0.9261 1.2103 -0.9261c 0.5929 0 1.1809 0.3528 1.1809 1.0633c 0 0.4753 -0.2695 0.7203 -0.6664 0.8281c 0.3038 0.1078 0.5929 0.3038 0.5929 0.8036c 0 0.4655 -0.3528 0.9016 -1.0437 0.9016c -0.9261 0 -1.127 -0.7203 -1.1662 -0.9996c 0 0 0.294 -0.0539 0.3185 -0.0539c 0.1078 0 0.1519 0.0539 0.1862 0.1519c 0.0686 0.2842 0.2891 0.4851 0.637 0.4851c 0.3626 0 0.5831 -0.2058 0.5831 -0.5684c 0 -0.4459 -0.343 -0.588 -0.8036 -0.588v -0.3577c 0.539 0 0.8673 -0.1274 0.8673 -0.6223c 0 -0.2597 -0.196 -0.6223 -0.6958 -0.6223c -0.4067 0 -0.5831 0.2499 -0.7056 0.5243c -0.0294 0.0637 -0.0931 0.0931 -0.1617 0.0931c -0.0539 0 -0.1911 -0.0539 -0.3332 -0.1127Z "/></symbol><symbol id="gE9246A48E1D20E59CFA000C3E7658370" overflow="visible"><path d="M 0 0m 0.329 0h 3.346v 0.378c 0 0.133 -0.084 0.21 -0.217 0.21h -1.68c -0.21 0 -0.392 -0.035 -0.56 -0.084l 1.316 1.358c 0.581 0.595 1.043 1.078 1.043 1.813c 0 0.714 -0.476 1.393 -1.505 1.393c -0.966 0 -1.519 -0.56 -1.638 -1.414c 0 0 0.35 -0.063 0.385 -0.063c 0.14 0 0.21 0.07 0.252 0.196c 0.098 0.434 0.434 0.749 0.966 0.749c 0.553 0 0.903 -0.322 0.903 -0.882c 0 -0.63 -0.413 -1.078 -0.889 -1.561l -1.603 -1.617c -0.063 -0.063 -0.119 -0.147 -0.119 -0.266Z "/></symbol><symbol id="gEB2988F43CCB186328827BE124F4D454" overflow="visible"><path d="M 0 0m 0.574 3.738l 0.196 -0.273c 0.028 -0.049 0.098 -0.07 0.161 -0.07c 0.049 0 0.098 0.014 0.133 0.049l 0.896 0.763c -0.007 -0.105 -0.014 -0.21 -0.014 -0.315v -3.416h -1.071v -0.476h 2.688v 0.476h -0.987v 4.55h -0.504Z "/></symbol><symbol id="g795174D0217B50A2814BBCD05E6B8168" overflow="visible"><path d="M 0 0m 0.21 2.506c 0 -1.715 0.756 -2.562 1.82 -2.562c 0.952 0 1.82 0.735 1.82 2.562c 0 1.757 -0.791 2.562 -1.82 2.562c -1.029 0 -1.82 -0.777 -1.82 -2.562Z m 0.644 0c 0 0.819 0.168 2.037 1.176 2.037c 1.015 0 1.176 -1.253 1.176 -2.037c 0 -0.847 -0.182 -2.03 -1.176 -2.03c -1.134 0 -1.176 1.547 -1.176 2.03Z "/></symbol></defs></svg>