<svg viewBox="0 0 328.777395005 165.344220472" width="328.777395005pt" height="165.344220472pt" xmlns="http://www.w3.org/2000/svg" xmlns:xlink="http://www.w3.org/1999/xlink" xmlns:h5="http://www.w3.org/1999/xhtml"><path fill="#ffffff" fill-rule="nonzero" d="M 0 0v 165.344220472h 328.777395005v -165.344220472Z "/><g transform="translate(6 6)"><path fill="none" stroke="#000000" stroke-width="0.4" stroke-linecap="butt" stroke-linejoin="miter" stroke-miterlimit="4" transform="translate(2.835021654 56.692913386)" d="M 0 0m 14.173228346 0c -7.82056063 0 -14.173228346 6.352667717 -14.173228346 14.173228346c 0 7.82056063 6.352667717 14.173228346 14.173228346 14.173228346c 7.82056063 0 14.173228346 -6.352667717 14.173228346 -14.173228346c 0 -7.82056063 -6.352667717 -14.173228346 -14.173228346 -14.173228346Z "/><path fill="none" stroke="#000000" stroke-width="0.7" stroke-linecap="butt" stroke-linejoin="miter" stroke-miterlimit="4" transform="translate(17.00825 61.735497346)" d="M 0 0m 14.173228346 9.130644386h -14.173228346l 10.840282969 -9.130644386"/><path fill="none" stroke="#c1002a" stroke-width="2" stroke-linecap="butt" stroke-linejoin="miter" stroke-miterlimit="4" transform="translate(27.848532969 61.735497346)" d="M 0 0m 3.332945377 9.130644386c 0 -3.341265206 -1.180443234 -6.575103798 -3.332945377 -9.130644386"/><path fill="none" transform="translate(33.156839631 63.024172808)" d="M 0 0h 20.601v 5.964h -20.601v -5.964Z "/><g transform="translate(33.156839631 63.02417276)"><g transform="matrix(1 0 0 -1 0 5.0155)"><use xlink:href="#g110B16AC9F7C6BF342704D3A59F77EF9" x="0" y="0" fill="#000000" fill-rule="nonzero"/><use xlink:href="#gBFB79024C6DD6454497A7C9E16BF4C35" x="4.06" y="0" fill="#000000" fill-rule="nonzero"/><use xlink:href="#g7FB43DFBAEB9304570B01244A3219FCF" x="5.649" y="0" fill="#000000" fill-rule="nonzero"/><use xlink:href="#gE1934B33AEDEA9821FD23A4BA84E8542" x="11.501" y="0" fill="#000000" fill-rule="nonzero"/><use xlink:href="#gC9E890C70AEB0737BAF0D6109801581B" x="14.8435" y="0" fill="#000000" fill-rule="nonzero"/></g></g><path fill="none" transform="translate(0 90.435307087)" d="M 0 0h 34.0165v 6.216h -34.0165v -6.216Z "/><g transform="translate(-3.1e-8 90.435307039)"><g transform="matrix(1 0 0 -1 0 5.0155)"><use xlink:href="#g9BDC21AB810162EB42BBA2F2A353AD6C" x="0" y="0" fill="#000000" fill-rule="nonzero"/><use xlink:href="#g965A356DFFDBF286E553BC594ADC4D9" x="2.492" y="0" fill="#000000" fill-rule="nonzero"/><use xlink:href="#g600E758BDFD388228A32ED9BF4B30FB5" x="5.887" y="0" fill="#000000" fill-rule="nonzero"/><use xlink:href="#g676B8A4CC949ACA093B0615FBDB24A9C" x="9.3975" y="0" fill="#000000" fill-rule="nonzero"/><use xlink:href="#gFD53C8E0DB2A3A6C0007BAA571264781" x="13.3665" y="0" fill="#000000" fill-rule="nonzero"/><use xlink:href="#gBD27E53D64B74F39F2A0C2B616340518" x="19.0645" y="0" fill="#000000" fill-rule="nonzero"/><use xlink:href="#gE1934B33AEDEA9821FD23A4BA84E8542" x="24.9165" y="0" fill="#000000" fill-rule="nonzero"/><use xlink:href="#gC9E890C70AEB0737BAF0D6109801581B" x="28.259" y="0" fill="#000000" fill-rule="nonzero"/></g></g><path fill="none" stroke="#000000" stroke-width="0.4" stroke-linecap="butt" stroke-linejoin="miter" stroke-miterlimit="4" transform="translate(65.197226378 42.519685039)" d="M 0 0m 28.346456693 0c -15.64112126 0 -28.346456693 12.705335433 -28.346456693 28.346456693c 0 15.64112126 12.705335433 28.346456693 28.346456693 28.346456693c 15.64112126 0 28.346456693 -12.705335433 28.346456693 -28.346456693c 0 -15.64112126 -12.705335433 -28.346456693 -28.346456693 -28.346456693Z "/><path fill="none" stroke="#000000" stroke-width="0.7" stroke-linecap="butt" stroke-linejoin="miter" stroke-miterlimit="4" transform="translate(93.543683071 52.60485296)" d="M 0 0m 28.346456693 18.261288772h -28.346456693l 21.680565939 -18.261288772"/><path fill="none" stroke="#c1002a" stroke-width="2" stroke-linecap="butt" stroke-linejoin="miter" stroke-miterlimit="4" transform="translate(115.22424901 52.60485296)" d="M 0 0m 6.665890754 18.261288772c 0 -6.682530411 -2.360886468 -13.150207596 -6.665890754 -18.261288772"/><path fill="none" transform="translate(123.006216663 58.164203883)" d="M 0 0h 20.601v 5.964h -20.601v -5.964Z "/><g transform="translate(123.006216663 58.164203836)"><g transform="matrix(1 0 0 -1 0 5.0155)"><use xlink:href="#gBD27E53D64B74F39F2A0C2B616340518" x="0" y="0" fill="#000000" fill-rule="nonzero"/><use xlink:href="#gBFB79024C6DD6454497A7C9E16BF4C35" x="4.06" y="0" fill="#000000" fill-rule="nonzero"/><use xlink:href="#g14697A116C4DD4F01751273201612075" x="5.649" y="0" fill="#000000" fill-rule="nonzero"/><use xlink:href="#gE1934B33AEDEA9821FD23A4BA84E8542" x="11.501" y="0" fill="#000000" fill-rule="nonzero"/><use xlink:href="#gC9E890C70AEB0737BAF0D6109801581B" x="14.8435" y="0" fill="#000000" fill-rule="nonzero"/></g></g><path fill="none" transform="translate(76.535433071 104.608535433)" d="M 0 0h 34.0165v 6.216h -34.0165v -6.216Z "/><g transform="translate(76.535433039 104.608535386)"><g transform="matrix(1 0 0 -1 0 5.0155)"><use xlink:href="#g9BDC21AB810162EB42BBA2F2A353AD6C" x="0" y="0" fill="#000000" fill-rule="nonzero"/><use xlink:href="#g965A356DFFDBF286E553BC594ADC4D9" x="2.492" y="0" fill="#000000" fill-rule="nonzero"/><use xlink:href="#g600E758BDFD388228A32ED9BF4B30FB5" x="5.887" y="0" fill="#000000" fill-rule="nonzero"/><use xlink:href="#g676B8A4CC949ACA093B0615FBDB24A9C" x="9.3975" y="0" fill="#000000" fill-rule="nonzero"/><use xlink:href="#gFD53C8E0DB2A3A6C0007BAA571264781" x="13.3665" y="0" fill="#000000" fill-rule="nonzero"/><use xlink:href="#g459B6EF42FFB8F59DEFE0DF277212C03" x="19.0645" y="0" fill="#000000" fill-rule="nonzero"/><use xlink:href="#gE1934B33AEDEA9821FD23A4BA84E8542" x="24.9165" y="0" fill="#000000" fill-rule="nonzero"/><use xlink:href="#gC9E890C70AEB0737BAF0D6109801581B" x="28.259" y="0" fill="#000000" fill-rule="nonzero"/></g></g><path fill="none" stroke="#000000" stroke-width="0.4" stroke-linecap="butt" stroke-linejoin="miter" stroke-miterlimit="4" transform="translate(155.905887795)" d="M 0 0m 70.866141732 0c -39.10280315 0 -70.866141732 31.763338583 -70.866141732 70.866141732c 0 39.10280315 31.763338583 70.866141732 70.866141732 70.866141732c 39.10280315 0 70.866141732 -31.763338583 70.866141732 -70.866141732c 0 -39.10280315 -31.763338583 -70.866141732 -70.866141732 -70.866141732Z "/><path fill="none" stroke="#000000" stroke-width="0.7" stroke-linecap="butt" stroke-linejoin="miter" stroke-miterlimit="4" transform="translate(226.772029528 25.212919802)" d="M 0 0m 70.866141732 45.65322193h -70.866141732l 54.201414847 -45.65322193"/><path fill="none" stroke="#c1002a" stroke-width="2" stroke-linecap="butt" stroke-linejoin="miter" stroke-miterlimit="4" transform="translate(280.973444374 25.212919802)" d="M 0 0m 16.664726885 45.65322193c 0 -16.706326028 -5.902216169 -32.87551899 -16.664726885 -45.65322193"/><path fill="none" transform="translate(296.176395005 43.584297109)" d="M 0 0h 20.601v 5.964h -20.601v -5.964Z "/><g transform="translate(296.176395005 43.584297062)"><g transform="matrix(1 0 0 -1 0 5.0155)"><use xlink:href="#g5E314722F0DC65118FCE360484CB1D4B" x="0" y="0" fill="#000000" fill-rule="nonzero"/><use xlink:href="#gBFB79024C6DD6454497A7C9E16BF4C35" x="4.06" y="0" fill="#000000" fill-rule="nonzero"/><use xlink:href="#g2361EE19803EB6BFA58E566A643BCFCE" x="5.649" y="0" fill="#000000" fill-rule="nonzero"/><use xlink:href="#gE1934B33AEDEA9821FD23A4BA84E8542" x="11.501" y="0" fill="#000000" fill-rule="nonzero"/><use xlink:href="#gC9E890C70AEB0737BAF0D6109801581B" x="14.8435" y="0" fill="#000000" fill-rule="nonzero"/></g></g><path fill="none" transform="translate(209.763779528 147.128220472)" d="M 0 0h 34.0165v 6.216h -34.0165v -6.216Z "/><g transform="translate(209.763779496 147.128220425)"><g transform="matrix(1 0 0 -1 0 5.0155)"><use xlink:href="#g9BDC21AB810162EB42BBA2F2A353AD6C" x="0" y="0" fill="#000000" fill-rule="nonzero"/><use xlink:href="#g965A356DFFDBF286E553BC594ADC4D9" x="2.492" y="0" fill="#000000" fill-rule="nonzero"/><use xlink:href="#g600E758BDFD388228A32ED9BF4B30FB5" x="5.887" y="0" fill="#000000" fill-rule="nonzero"/><use xlink:href="#g676B8A4CC949ACA093B0615FBDB24A9C" x="9.3975" y="0" fill="#000000" fill-rule="nonzero"/><use xlink:href="#gFD53C8E0DB2A3A6C0007BAA571264781" x="13.3665" y="0" fill="#000000" fill-rule="nonzero"/><use xlink:href="#g2361EE19803EB6BFA58E566A643BCFCE" x="19.0645" y="0" fill="#000000" fill-rule="nonzero"/><use xlink:href="#gE1934B33AEDEA9821FD23A4BA84E8542" x="24.9165" y="0" fill="#000000" fill-rule="nonzero"/><use xlink:href="#gC9E890C70AEB0737BAF0D6109801581B" x="28.259" y="0" fill="#000000" fill-rule="nonzero"/></g></g></g><defs><symbol id="g110B16AC9F7C6BF342704D3A59F77EF9" overflow="visible"><path d="M 0 0m 3.85 2.506q 0 -0.658 -0.14175 -1.13925q -0.14175 -0.48125 -0.38675 -0.79625q -0.245 -0.315 -0.57925 -0.469q -0.33425 -0.154 -0.71575 -0.154q -0.385 0 -0.71575 0.154q -0.33075 0.154 -0.57575 0.469q -0.245 0.315 -0.385 0.79625q -0.14 0.48125 -0.14 1.13925q 0 0.658 0.14 1.141q 0.14 0.483 0.385 0.79975q 0.245 0.31675 0.57575 0.47075q 0.33075 0.154 0.71575 0.154q 0.3815 0 0.71575 -0.154q 0.33425 -0.154 0.57925 -0.47075q 0.245 -0.31675 0.38675 -0.79975q 0.14175 -0.483 0.14175 -1.141Z m -0.6475 0q 0 0.574 -0.09625 0.96425q -0.09625 0.39025 -0.259 0.62825q -0.16275 0.238 -0.37625 0.34125q -0.2135 0.10325 -0.4445 0.10325q -0.231 0 -0.4445 -0.10325q -0.2135 -0.10325 -0.3745 -0.34125q -0.161 -0.238 -0.25725 -0.62825q -0.09625 -0.39025 -0.09625 -0.96425q 0 -0.574 0.09625 -0.9625q 0.09625 -0.3885 0.25725 -0.6265q 0.161 -0.238 0.3745 -0.34125q 0.2135 -0.10325 0.4445 -0.10325q 0.231 0 0.4445 0.10325q 0.2135 0.10325 0.37625 0.34125q 0.16275 0.238 0.259 0.6265q 0.09625 0.3885 0.09625 0.9625Z "/></symbol><symbol id="gBFB79024C6DD6454497A7C9E16BF4C35" overflow="visible"><path d="M 0 0m 0.455 -0.847q -0.028 0.0245 -0.0385 0.0455q -0.0105 0.021 -0.0105 0.0525q 0 0.0245 0.01575 0.049q 0.01575 0.0245 0.03675 0.0455q 0.035 0.0385 0.08925 0.1015q 0.05425 0.063 0.11025 0.14875q 0.056 0.08575 0.10325 0.189q 0.04725 0.10325 0.06825 0.21875q -0.0105 -0.0035 -0.02275 -0.0035q -0.01225 0 -0.02275 0q -0.182 0 -0.29575 0.12075q -0.11375 0.12075 -0.11375 0.30975q 0 0.1645 0.11375 0.28q 0.11375 0.1155 0.30275 0.1155q 0.105 0 0.1855 -0.0385q 0.0805 -0.0385 0.13475 -0.10675q 0.05425 -0.06825 0.08225 -0.1575q 0.028 -0.08925 0.028 -0.19425q 0 -0.1575 -0.04375 -0.32725q -0.04375 -0.16975 -0.1295 -0.336q -0.08575 -0.16625 -0.20825 -0.32375q -0.1225 -0.1575 -0.28 -0.2905l -0.105 0.1015Z "/></symbol><symbol id="g7FB43DFBAEB9304570B01244A3219FCF" overflow="visible"><path d="M 0 0m 3.7835 5.0155v -0.28q 0 -0.119 -0.02625 -0.196q -0.02625 -0.077 -0.05075 -0.1295l -2.079 -4.1895q -0.0455 -0.091 -0.126 -0.15575q -0.0805 -0.06475 -0.2135 -0.06475h -0.448l 2.107 4.137q 0.0455 0.0875 0.0945 0.161q 0.049 0.0735 0.105 0.14h -2.618q -0.0595 0 -0.105 0.04725q -0.0455 0.04725 -0.0455 0.10675v 0.4235h 3.4055Z "/></symbol><symbol id="gE1934B33AEDEA9821FD23A4BA84E8542" overflow="visible"><path d="M 0 0m 2.961 2.9155q -0.028 -0.0385 -0.056 -0.0595q -0.028 -0.021 -0.077 -0.021q -0.0525 0 -0.1155 0.04375q -0.063 0.04375 -0.15575 0.09625q -0.09275 0.0525 -0.2275 0.09625q -0.13475 0.04375 -0.33075 0.04375q -0.2625 0 -0.462 -0.09275q -0.1995 -0.09275 -0.33425 -0.26775q -0.13475 -0.175 -0.203 -0.4235q -0.06825 -0.2485 -0.06825 -0.5565q 0 -0.322 0.0735 -0.57225q 0.0735 -0.25025 0.20825 -0.42q 0.13475 -0.16975 0.3255 -0.259q 0.19075 -0.08925 0.42875 -0.08925q 0.2275 0 0.3745 0.05425q 0.147 0.05425 0.24325 0.12075q 0.09625 0.0665 0.161 0.12075q 0.06475 0.05425 0.12775 0.05425q 0.077 0 0.119 -0.0595l 0.175 -0.2275q -0.1155 -0.1435 -0.2625 -0.245q -0.147 -0.1015 -0.31675 -0.16975q -0.16975 -0.06825 -0.35525 -0.09975q -0.1855 -0.0315 -0.378 -0.0315q -0.3325 0 -0.61775 0.1225q -0.28525 0.1225 -0.49525 0.35525q -0.21 0.23275 -0.329 0.57225q -0.119 0.3395 -0.119 0.7735q 0 0.3955 0.11025 0.7315q 0.11025 0.336 0.322 0.57925q 0.21175 0.24325 0.5215 0.37975q 0.30975 0.1365 0.71225 0.1365q 0.3745 0 0.65975 -0.12075q 0.28525 -0.12075 0.50575 -0.34125l -0.1645 -0.224Z "/></symbol><symbol id="gC9E890C70AEB0737BAF0D6109801581B" overflow="visible"><path d="M 0 0m 0.4935 0v 3.5455h 0.3745q 0.133 0 0.1645 -0.1295l 0.0455 -0.364q 0.196 0.2415 0.441 0.3955q 0.245 0.154 0.567 0.154q 0.357 0 0.57925 -0.1995q 0.22225 -0.1995 0.32025 -0.539q 0.077 0.1925 0.19775 0.3325q 0.12075 0.14 0.27125 0.231q 0.1505 0.091 0.32025 0.133q 0.16975 0.042 0.34475 0.042q 0.28 0 0.49875 -0.08925q 0.21875 -0.08925 0.371 -0.26075q 0.15225 -0.1715 0.23275 -0.42175q 0.0805 -0.25025 0.0805 -0.57225v -2.2575h -0.6265v 2.2575q 0 0.4165 -0.182 0.63175q -0.182 0.21525 -0.525 0.21525q -0.154 0 -0.29225 -0.05425q -0.13825 -0.05425 -0.24325 -0.15925q -0.105 -0.105 -0.16625 -0.26425q -0.06125 -0.15925 -0.06125 -0.36925v -2.2575h -0.6265v 2.2575q 0 0.427 -0.1715 0.637q -0.1715 0.21 -0.5005 0.21q -0.231 0 -0.427 -0.12425q -0.196 -0.12425 -0.3605 -0.33775v -2.6425h -0.6265Z "/></symbol><symbol id="g9BDC21AB810162EB42BBA2F2A353AD6C" overflow="visible"><path d="M 0 0m 1.085 2.835q 0.168 0.364 0.413 0.56875q 0.245 0.20475 0.5985 0.20475q 0.112 0 0.21525 -0.0245q 0.10325 -0.0245 0.18375 -0.077l -0.0455 -0.4655q -0.021 -0.0875 -0.105 -0.0875q -0.049 0 -0.1435 0.021q -0.0945 0.021 -0.2135 0.021q -0.168 0 -0.29925 -0.049q -0.13125 -0.049 -0.2345 -0.14525q -0.10325 -0.09625 -0.1855 -0.238q -0.08225 -0.14175 -0.14875 -0.32375v -2.24h -0.6265v 3.5455h 0.357q 0.1015 0 0.14 -0.0385q 0.0385 -0.0385 0.0525 -0.133l 0.042 -0.539Z "/></symbol><symbol id="g965A356DFFDBF286E553BC594ADC4D9" overflow="visible"><path d="M 0 0m 2.415 1.596q -0.4305 -0.014 -0.73325 -0.06825q -0.30275 -0.05425 -0.4935 -0.14175q -0.19075 -0.0875 -0.2765 -0.2065q -0.08575 -0.119 -0.08575 -0.266q 0 -0.14 0.0455 -0.2415q 0.0455 -0.1015 0.12425 -0.16625q 0.07875 -0.06475 0.1855 -0.0945q 0.10675 -0.02975 0.22925 -0.02975q 0.1645 0 0.301 0.03325q 0.1365 0.03325 0.25725 0.09625q 0.12075 0.063 0.231 0.1505q 0.11025 0.0875 0.21525 0.1995v 0.735Z m -2.0125 1.449q 0.294 0.2835 0.6335 0.4235q 0.3395 0.14 0.7525 0.14q 0.2975 0 0.5285 -0.098q 0.231 -0.098 0.3885 -0.273q 0.1575 -0.175 0.238 -0.4235q 0.0805 -0.2485 0.0805 -0.546v -2.268h -0.2765q -0.091 0 -0.14 0.02975q -0.049 0.02975 -0.077 0.11725l -0.07 0.336q -0.14 -0.1295 -0.273 -0.22925q -0.133 -0.09975 -0.28 -0.168q -0.147 -0.06825 -0.31325 -0.105q -0.16625 -0.03675 -0.36925 -0.03675q -0.2065 0 -0.3885 0.05775q -0.182 0.05775 -0.31675 0.17325q -0.13475 0.1155 -0.2135 0.29225q -0.07875 0.17675 -0.07875 0.41825q 0 0.21 0.1155 0.40425q 0.1155 0.19425 0.3745 0.34475q 0.259 0.1505 0.6755 0.24675q 0.4165 0.09625 1.022 0.11025v 0.2765q 0 0.413 -0.1785 0.62475q -0.1785 0.21175 -0.5215 0.21175q -0.231 0 -0.38675 -0.05775q -0.15575 -0.05775 -0.2695 -0.1295q -0.11375 -0.07175 -0.196 -0.1295q -0.08225 -0.05775 -0.16275 -0.05775q -0.063 0 -0.1085 0.03325q -0.0455 0.03325 -0.077 0.08225l -0.112 0.1995Z "/></symbol><symbol id="g600E758BDFD388228A32ED9BF4B30FB5" overflow="visible"><path d="M 0 0m 3.5525 3.5455l -1.9775 -4.592q -0.0315 -0.07 -0.07875 -0.112q -0.04725 -0.042 -0.14525 -0.042h -0.462l 0.6475 1.407l -1.463 3.339h 0.539q 0.0805 0 0.12775 -0.04025q 0.04725 -0.04025 0.06475 -0.08925l 0.9485 -2.233q 0.056 -0.147 0.0945 -0.308q 0.049 0.1645 0.105 0.3115l 0.9205 2.2295q 0.021 0.056 0.07175 0.09275q 0.05075 0.03675 0.11375 0.03675h 0.4935Z "/></symbol><symbol id="g676B8A4CC949ACA093B0615FBDB24A9C" overflow="visible"><path d="M 0 0m 1.988 3.6015q 0.3885 0 0.7 -0.1295q 0.3115 -0.1295 0.532 -0.3675q 0.2205 -0.238 0.33775 -0.57575q 0.11725 -0.33775 0.11725 -0.75425q 0 -0.42 -0.11725 -0.756q -0.11725 -0.336 -0.33775 -0.574q -0.2205 -0.238 -0.532 -0.36575q -0.3115 -0.12775 -0.7 -0.12775q -0.392 0 -0.70525 0.12775q -0.31325 0.12775 -0.53375 0.36575q -0.2205 0.238 -0.33775 0.574q -0.11725 0.336 -0.11725 0.756q 0 0.4165 0.11725 0.75425q 0.11725 0.33775 0.33775 0.57575q 0.2205 0.238 0.53375 0.3675q 0.31325 0.1295 0.70525 0.1295Z m 0 -3.164q 0.525 0 0.784 0.35175q 0.259 0.35175 0.259 0.98175q 0 0.6335 -0.259 0.987q -0.259 0.3535 -0.784 0.3535q -0.266 0 -0.46375 -0.091q -0.19775 -0.091 -0.329 -0.2625q -0.13125 -0.1715 -0.196 -0.42175q -0.06475 -0.25025 -0.06475 -0.56525q 0 -0.63 0.26075 -0.98175q 0.26075 -0.35175 0.79275 -0.35175Z "/></symbol><symbol id="gFD53C8E0DB2A3A6C0007BAA571264781" overflow="visible"><path d="M 0 0m 1.0815 3.031q 0.1155 0.1295 0.245 0.2345q 0.1295 0.105 0.27475 0.18025q 0.14525 0.07525 0.308 0.1155q 0.16275 0.04025 0.35175 0.04025q 0.2905 0 0.51275 -0.09625q 0.22225 -0.09625 0.371 -0.273q 0.14875 -0.17675 0.22575 -0.42525q 0.077 -0.2485 0.077 -0.5495v -2.2575h -0.6265v 2.2575q 0 0.4025 -0.18375 0.62475q -0.18375 0.22225 -0.55825 0.22225q -0.2765 0 -0.51625 -0.133q -0.23975 -0.133 -0.44275 -0.3605v -2.611h -0.6265v 3.5455h 0.3745q 0.133 0 0.1645 -0.1295l 0.049 -0.385Z "/></symbol><symbol id="gBD27E53D64B74F39F2A0C2B616340518" overflow="visible"><path d="M 0 0m 3.563 0.476v -0.476h -2.688v 0.476h 1.0745v 3.4195q 0 0.154 0.0105 0.3115l -0.8925 -0.7665q -0.0455 -0.0385 -0.091 -0.04725q -0.0455 -0.00875 -0.084 -0.00175q -0.0385 0.007 -0.07175 0.028q -0.03325 0.021 -0.05075 0.0455l -0.196 0.2695l 1.4945 1.2915h 0.5075v -4.55h 0.987Z "/></symbol><symbol id="g14697A116C4DD4F01751273201612075" overflow="visible"><path d="M 0 0m 2.555 1.8095v 2.0685q 0 0.091 0.007 0.1995q 0.007 0.1085 0.021 0.2205l -1.827 -2.4885h 1.799Z m 1.3055 0v -0.357q 0 -0.056 -0.03325 -0.0945q -0.03325 -0.0385 -0.10325 -0.0385h -0.623v -1.3195h -0.546v 1.3195h -2.226q -0.07 0 -0.12075 0.04025q -0.05075 0.04025 -0.06475 0.09975l -0.063 0.3185l 2.4395 3.2375h 0.581v -3.206h 0.7595Z "/></symbol><symbol id="g459B6EF42FFB8F59DEFE0DF277212C03" overflow="visible"><path d="M 0 0m 3.4545 0.5915q 0.1015 0 0.161 -0.0595q 0.0595 -0.0595 0.0595 -0.154v -0.378h -3.346v 0.2135q 0 0.0665 0.028 0.1365q 0.028 0.07 0.0875 0.1295l 1.6065 1.6135q 0.1995 0.203 0.364 0.39025q 0.1645 0.18725 0.28 0.37625q 0.1155 0.189 0.1785 0.38325q 0.063 0.19425 0.063 0.41475q 0 0.2205 -0.07 0.38675q -0.07 0.16625 -0.19075 0.27475q -0.12075 0.1085 -0.28525 0.16275q -0.1645 0.05425 -0.3535 0.05425q -0.1925 0 -0.3535 -0.056q -0.161 -0.056 -0.28525 -0.15575q -0.12425 -0.09975 -0.20825 -0.23625q -0.084 -0.1365 -0.119 -0.301q -0.042 -0.1225 -0.11375 -0.16275q -0.07175 -0.04025 -0.20125 -0.02275l -0.3255 0.056q 0.049 0.343 0.19075 0.60725q 0.14175 0.26425 0.357 0.44275q 0.21525 0.1785 0.49175 0.27125q 0.2765 0.09275 0.5985 0.09275q 0.3185 0 0.595 -0.0945q 0.2765 -0.0945 0.4795 -0.27475q 0.203 -0.18025 0.3185 -0.43925q 0.1155 -0.259 0.1155 -0.588q 0 -0.28 -0.084 -0.51975q -0.084 -0.23975 -0.2275 -0.45675q -0.1435 -0.217 -0.33075 -0.4235q -0.18725 -0.2065 -0.39725 -0.4165l -1.323 -1.351q 0.14 0.0385 0.2835 0.06125q 0.1435 0.02275 0.2765 0.02275h 1.68Z "/></symbol><symbol id="g5E314722F0DC65118FCE360484CB1D4B" overflow="visible"><path d="M 0 0m 0.455 3.6575q 0.049 0.343 0.189 0.60725q 0.14 0.26425 0.35525 0.44275q 0.21525 0.1785 0.4935 0.27125q 0.27825 0.09275 0.60025 0.09275q 0.3185 0 0.588 -0.091q 0.2695 -0.091 0.46375 -0.259q 0.19425 -0.168 0.30275 -0.406q 0.1085 -0.238 0.1085 -0.5285q 0 -0.238 -0.06125 -0.42525q -0.06125 -0.18725 -0.175 -0.32725q -0.11375 -0.14 -0.27475 -0.238q -0.161 -0.098 -0.3605 -0.161q 0.49 -0.126 0.73675 -0.43225q 0.24675 -0.30625 0.24675 -0.76475q 0 -0.3465 -0.13125 -0.623q -0.13125 -0.2765 -0.35875 -0.47075q -0.2275 -0.19425 -0.53025 -0.2975q -0.30275 -0.10325 -0.64925 -0.10325q -0.399 0 -0.6825 0.09975q -0.2835 0.09975 -0.4795 0.27475q -0.196 0.175 -0.322 0.41475q -0.126 0.23975 -0.2135 0.51975l 0.2695 0.112q 0.105 0.0455 0.20475 0.0245q 0.09975 -0.021 0.14525 -0.1155q 0.0455 -0.098 0.11375 -0.2345q 0.06825 -0.1365 0.18725 -0.2625q 0.119 -0.126 0.30275 -0.2135q 0.18375 -0.0875 0.46725 -0.0875q 0.2625 0 0.46025 0.08575q 0.19775 0.08575 0.329 0.22225q 0.13125 0.1365 0.19775 0.3045q 0.0665 0.168 0.0665 0.3325q 0 0.203 -0.0525 0.371q -0.0525 0.168 -0.196 0.2905q -0.1435 0.1225 -0.39375 0.1925q -0.25025 0.07 -0.64225 0.07v 0.4515q 0.322 0.0035 0.54775 0.07q 0.22575 0.0665 0.3675 0.182q 0.14175 0.1155 0.2065 0.2765q 0.06475 0.161 0.06475 0.357q 0 0.217 -0.06825 0.378q -0.06825 0.161 -0.18725 0.266q -0.119 0.105 -0.28175 0.1575q -0.16275 0.0525 -0.35175 0.0525q -0.189 0 -0.35175 -0.056q -0.16275 -0.056 -0.287 -0.15575q -0.12425 -0.09975 -0.20825 -0.23625q -0.084 -0.1365 -0.119 -0.301q -0.0455 -0.1225 -0.11375 -0.16275q -0.06825 -0.04025 -0.19775 -0.02275l -0.3255 0.056Z "/></symbol><symbol id="g2361EE19803EB6BFA58E566A643BCFCE" overflow="visible"><path d="M 0 0m 1.267 3.122q 0.392 0.084 0.721 0.084q 0.392 0 0.693 -0.1155q 0.301 -0.1155 0.50225 -0.3185q 0.20125 -0.203 0.3045 -0.4795q 0.10325 -0.2765 0.10325 -0.602q 0 -0.399 -0.13825 -0.721q -0.13825 -0.322 -0.3815 -0.55125q -0.24325 -0.22925 -0.57225 -0.35175q -0.329 -0.1225 -0.7105 -0.1225q -0.2205 0 -0.4235 0.04375q -0.203 0.04375 -0.37975 0.11725q -0.17675 0.0735 -0.32725 0.168q -0.1505 0.0945 -0.266 0.1995l 0.1925 0.266q 0.063 0.091 0.1645 0.091q 0.07 0 0.1575 -0.05425q 0.0875 -0.05425 0.2135 -0.12075q 0.126 -0.0665 0.29575 -0.12075q 0.16975 -0.05425 0.40425 -0.05425q 0.2625 0 0.4725 0.084q 0.21 0.084 0.3605 0.23975q 0.1505 0.15575 0.231 0.37275q 0.0805 0.217 0.0805 0.4865q 0 0.2345 -0.06825 0.4235q -0.06825 0.189 -0.2065 0.322q -0.13825 0.133 -0.34475 0.2065q -0.2065 0.0735 -0.483 0.0735q -0.189 0 -0.39375 -0.0315q -0.20475 -0.0315 -0.41825 -0.1015l -0.392 0.1155l 0.4025 2.345h 2.3765v -0.273q 0 -0.133 -0.08225 -0.21875q -0.08225 -0.08575 -0.28175 -0.08575h -1.575l -0.231 -1.316Z "/></symbol></defs></svg>