<svg viewBox="0 0 40.27 19.8815" width="40.27pt" height="19.8815pt" xmlns="http://www.w3.org/2000/svg" xmlns:xlink="http://www.w3.org/1999/xlink" xmlns:h5="http://www.w3.org/1999/xhtml"><path fill="#ffffff" fill-rule="nonzero" d="M 0 0v 19.8815h 40.27v -19.8815Z "/><g transform="matrix(1 0 0 -1 6 13.8815)"><use xlink:href="#gE3FF9785F1E2A56DD0B7C469DB32B4B3" x="0" y="0" fill="#000000" fill-rule="nonzero"/><use xlink:href="#gC5915247F1D7C4ADCB082234C3D5DE2B" x="6.38" y="0" fill="#000000" fill-rule="nonzero"/><use xlink:href="#g70061734F696B15746683841D09C91E5" x="12.76" y="0" fill="#000000" fill-rule="nonzero"/><use xlink:href="#g220FEA33EC8D4430459DCB3DC852CB8F" x="15.51" y="0" fill="#000000" fill-rule="nonzero"/><use xlink:href="#g858966C001BCFF83B2F1A65D32F9CBAB" x="21.89" y="0" fill="#000000" fill-rule="nonzero"/></g><defs><symbol id="gE3FF9785F1E2A56DD0B7C469DB32B4B3" overflow="visible"><path d="M 0 0m 6.05 3.938q 0 -1.034 -0.22275 -1.79025q -0.22275 -0.75625 -0.60775 -1.25125q -0.385 -0.495 -0.91025 -0.737q -0.52525 -0.242 -1.12475 -0.242q -0.605 0 -1.12475 0.242q -0.51975 0.242 -0.90475 0.737q -0.385 0.495 -0.605 1.25125q -0.22 0.75625 -0.22 1.79025q 0 1.034 0.22 1.793q 0.22 0.759 0.605 1.25675q 0.385 0.49775 0.90475 0.73975q 0.51975 0.242 1.12475 0.242q 0.5995 0 1.12475 -0.242q 0.52525 -0.242 0.91025 -0.73975q 0.385 -0.49775 0.60775 -1.25675q 0.22275 -0.759 0.22275 -1.793Z m -1.0175 0q 0 0.902 -0.15125 1.51525q -0.15125 0.61325 -0.407 0.98725q -0.25575 0.374 -0.59125 0.53625q -0.3355 0.16225 -0.6985 0.16225q -0.363 0 -0.6985 -0.16225q -0.3355 -0.16225 -0.5885 -0.53625q -0.253 -0.374 -0.40425 -0.98725q -0.15125 -0.61325 -0.15125 -1.51525q 0 -0.902 0.15125 -1.5125q 0.15125 -0.6105 0.40425 -0.9845q 0.253 -0.374 0.5885 -0.53625q 0.3355 -0.16225 0.6985 -0.16225q 0.363 0 0.6985 0.16225q 0.3355 0.16225 0.59125 0.53625q 0.25575 0.374 0.407 0.9845q 0.15125 0.6105 0.15125 1.5125Z "/></symbol><symbol id="gC5915247F1D7C4ADCB082234C3D5DE2B" overflow="visible"><path d="M 0 0m 3.19 0.693q 0.385 0 0.69025 0.10725q 0.30525 0.10725 0.517 0.3025q 0.21175 0.19525 0.3245 0.4675q 0.11275 0.27225 0.11275 0.60225q 0 0.407 -0.13475 0.69575q -0.13475 0.28875 -0.363 0.47025q -0.22825 0.1815 -0.52525 0.26675q -0.297 0.08525 -0.6215 0.08525q -0.3245 0 -0.6215 -0.08525q -0.297 -0.08525 -0.52525 -0.26675q -0.22825 -0.1815 -0.363 -0.47025q -0.13475 -0.28875 -0.13475 -0.69575q 0 -0.33 0.11275 -0.60225q 0.11275 -0.27225 0.3245 -0.4675q 0.21175 -0.19525 0.517 -0.3025q 0.30525 -0.10725 0.69025 -0.10725Z m 0 6.5175q -0.352 0 -0.61875 -0.1045q -0.26675 -0.1045 -0.4455 -0.286q -0.17875 -0.1815 -0.2695 -0.4235q -0.09075 -0.242 -0.09075 -0.517q 0 -0.2695 0.077 -0.5225q 0.077 -0.253 0.2475 -0.44825q 0.1705 -0.19525 0.44275 -0.3135q 0.27225 -0.11825 0.65725 -0.11825q 0.385 0 0.65725 0.11825q 0.27225 0.11825 0.44275 0.3135q 0.1705 0.19525 0.2475 0.44825q 0.077 0.253 0.077 0.5225q 0 0.275 -0.09075 0.517q -0.09075 0.242 -0.2695 0.4235q -0.17875 0.1815 -0.4455 0.286q -0.26675 0.1045 -0.61875 0.1045Z m 1.1275 -3.102q 0.737 -0.209 1.133 -0.6985q 0.396 -0.4895 0.396 -1.254q 0 -0.517 -0.19525 -0.93225q -0.19525 -0.41525 -0.5445 -0.70675q -0.34925 -0.2915 -0.83875 -0.44825q -0.4895 -0.15675 -1.078 -0.15675q -0.5885 0 -1.078 0.15675q -0.4895 0.15675 -0.8415 0.44825q -0.352 0.2915 -0.5445 0.70675q -0.1925 0.41525 -0.1925 0.93225q 0 0.7645 0.396 1.254q 0.396 0.4895 1.133 0.6985q -0.6215 0.231 -0.93775 0.69025q -0.31625 0.45925 -0.31625 1.09725q 0 0.4345 0.1705 0.814q 0.1705 0.3795 0.484 0.66q 0.3135 0.2805 0.75075 0.44q 0.43725 0.1595 0.97625 0.1595q 0.5335 0 0.9735 -0.1595q 0.44 -0.1595 0.7535 -0.44q 0.3135 -0.2805 0.484 -0.66q 0.1705 -0.3795 0.1705 -0.814q 0 -0.638 -0.31625 -1.09725q -0.31625 -0.45925 -0.93775 -0.69025Z "/></symbol><symbol id="g70061734F696B15746683841D09C91E5" overflow="visible"><path d="M 0 0m 0.6875 0.605q 0 0.143 0.05225 0.2695q 0.05225 0.1265 0.143 0.22q 0.09075 0.0935 0.21725 0.1485q 0.1265 0.055 0.2695 0.055q 0.143 0 0.2695 -0.055q 0.1265 -0.055 0.22 -0.1485q 0.0935 -0.0935 0.1485 -0.22q 0.055 -0.1265 0.055 -0.2695q 0 -0.1485 -0.055 -0.27225q -0.055 -0.12375 -0.1485 -0.21725q -0.0935 -0.0935 -0.22 -0.14575q -0.1265 -0.05225 -0.2695 -0.05225q -0.143 0 -0.2695 0.05225q -0.1265 0.05225 -0.21725 0.14575q -0.09075 0.0935 -0.143 0.21725q -0.05225 0.12375 -0.05225 0.27225Z m 0 4.125q 0 0.143 0.05225 0.2695q 0.05225 0.1265 0.143 0.22q 0.09075 0.0935 0.21725 0.1485q 0.1265 0.055 0.2695 0.055q 0.143 0 0.2695 -0.055q 0.1265 -0.055 0.22 -0.1485q 0.0935 -0.0935 0.1485 -0.22q 0.055 -0.1265 0.055 -0.2695q 0 -0.1485 -0.055 -0.27225q -0.055 -0.12375 -0.1485 -0.21725q -0.0935 -0.0935 -0.22 -0.14575q -0.1265 -0.05225 -0.2695 -0.05225q -0.143 0 -0.2695 0.05225q -0.1265 0.05225 -0.21725 0.14575q -0.09075 0.0935 -0.143 0.21725q -0.05225 0.12375 -0.05225 0.27225Z "/></symbol><symbol id="g220FEA33EC8D4430459DCB3DC852CB8F" overflow="visible"><path d="M 0 0m 4.015 2.8435v 3.2505q 0 0.143 0.011 0.3135q 0.011 0.1705 0.033 0.3465l -2.871 -3.9105h 2.827Z m 2.0515 0v -0.561q 0 -0.088 -0.05225 -0.1485q -0.05225 -0.0605 -0.16225 -0.0605h -0.979v -2.0735h -0.858v 2.0735h -3.498q -0.11 0 -0.18975 0.06325q -0.07975 0.06325 -0.10175 0.15675l -0.099 0.5005l 3.8335 5.0875h 0.913v -5.038h 1.1935Z "/></symbol><symbol id="g858966C001BCFF83B2F1A65D32F9CBAB" overflow="visible"><path d="M 0 0m 5.4285 0.9295q 0.1595 0 0.253 -0.0935q 0.0935 -0.0935 0.0935 -0.242v -0.594h -5.258v 0.3355q 0 0.1045 0.044 0.2145q 0.044 0.11 0.1375 0.2035l 2.5245 2.5355q 0.3135 0.319 0.572 0.61325q 0.2585 0.29425 0.44 0.59125q 0.1815 0.297 0.2805 0.60225q 0.099 0.30525 0.099 0.65175q 0 0.3465 -0.11 0.60775q -0.11 0.26125 -0.29975 0.43175q -0.18975 0.1705 -0.44825 0.25575q -0.2585 0.08525 -0.5555 0.08525q -0.3025 0 -0.5555 -0.088q -0.253 -0.088 -0.44825 -0.24475q -0.19525 -0.15675 -0.32725 -0.37125q -0.132 -0.2145 -0.187 -0.473q -0.066 -0.1925 -0.17875 -0.25575q -0.11275 -0.06325 -0.31625 -0.03575l -0.5115 0.088q 0.077 0.539 0.29975 0.95425q 0.22275 0.41525 0.561 0.69575q 0.33825 0.2805 0.77275 0.42625q 0.4345 0.14575 0.9405 0.14575q 0.5005 0 0.935 -0.1485q 0.4345 -0.1485 0.7535 -0.43175q 0.319 -0.28325 0.5005 -0.69025q 0.1815 -0.407 0.1815 -0.924q 0 -0.44 -0.132 -0.81675q -0.132 -0.37675 -0.3575 -0.71775q -0.2255 -0.341 -0.51975 -0.6655q -0.29425 -0.3245 -0.62425 -0.6545l -2.079 -2.123q 0.22 0.0605 0.4455 0.09625q 0.2255 0.03575 0.4345 0.03575h 2.64Z "/></symbol></defs></svg>