<svg viewBox="0 0 146.642998175 100.721738332" width="146.642998175pt" height="100.721738332pt" xmlns="http://www.w3.org/2000/svg" xmlns:xlink="http://www.w3.org/1999/xlink" xmlns:h5="http://www.w3.org/1999/xhtml"><path fill="#ffffff" fill-rule="nonzero" d="M 0 0v 100.721738332h 146.642998175v -100.721738332Z "/><g transform="translate(6 6)"><path fill="none" stroke="#000000" stroke-width="0.4" stroke-linecap="butt" stroke-linejoin="miter" stroke-miterlimit="4" transform="translate(0 68.312289513)" d="M 0 0m 0 0h 128.973706837"/><path fill="#000000" fill-rule="nonzero" stroke="#000000" stroke-width="0.4" stroke-linecap="butt" stroke-linejoin="miter" stroke-miterlimit="4" stroke-dashoffset="0" stroke-dasharray="" transform="translate(128.973706836 66.186305261)" d="M 0 0m 5.669291339 2.125984252l -5.669291339 2.125984252v -4.251968504l 5.669291339 2.125984252Z "/><path fill="none" stroke="#000000" stroke-width="0.4" stroke-linecap="butt" stroke-linejoin="miter" stroke-miterlimit="4" transform="translate(66.330708661 5.669291338)" d="M 0 0m 0 83.052446994v -83.052446994"/><path fill="#000000" fill-rule="nonzero" stroke="#000000" stroke-width="0.4" stroke-linecap="butt" stroke-linejoin="miter" stroke-miterlimit="4" stroke-dashoffset="0" stroke-dasharray="" transform="translate(64.204724409)" d="M 0 0m 2.125984252 0l 2.125984252 5.669291339h -4.251968504l 2.125984252 -5.669291339Z "/><path fill="none" stroke="#000000" stroke-width="0.7" stroke-linecap="butt" stroke-linejoin="miter" stroke-miterlimit="4" transform="translate(15.307086614 17.288667466)" d="M 0 0m 102.047244094 51.023622047c 0 -28.179568338 -22.844053709 -51.023622047 -51.023622047 -51.023622047c -28.179568338 0 -51.023622047 22.844053709 -51.023622047 51.023622047"/><path fill="none" stroke="#000000" stroke-width="1.1" stroke-linecap="butt" stroke-linejoin="miter" stroke-miterlimit="4" transform="translate(27.244346524 35.51493746)" d="M 0 0m 39.086362137 32.797352053l -39.086362137 -32.797352053v 32.797352053h 39.086362137Z "/><path fill="none" stroke="#000000" stroke-width="0.4" stroke-linecap="butt" stroke-linejoin="miter" stroke-miterlimit="4" transform="translate(27.244346524 64.230399749)" d="M 0 0m 0 0v 4.081889764h 4.081889764v -4.081889764h -4.081889764Z "/><path fill="none" transform="translate(8.962456761 24.681047696)" d="M 0 0m 0 0h 14.2v 6.752h -14.2v -6.752Z "/><g transform="translate(8.962456738 24.681047548)"><g transform="matrix(1 0 0 -1 0 5.296)"><use xlink:href="#gF7613EB426F1DD85760A5F8AFBE20C9A" x="0" y="0" fill="#000000" fill-rule="nonzero"/></g><g transform="matrix(1 0 0 -1 4.592 5.296)"><use xlink:href="#g7254FF205271575B59696312AEF3E14C" x="0" y="0" fill="#000000" fill-rule="nonzero"/></g><g transform="matrix(1 0 0 -1 7.112 5.296)"><use xlink:href="#g4A5F97377F1F71DC3C4229374DE6718C" x="0" y="0" fill="#000000" fill-rule="nonzero"/></g><g transform="matrix(1 0 0 -1 11.68 5.296)"><use xlink:href="#g3E820EA384D265099FC8524B2C4CAFC" x="0" y="0" fill="#000000" fill-rule="nonzero"/></g></g><path fill="none" transform="translate(3.100262535 48.565613487)" d="M 0 0m 0 0h 21.082666667v 6.696h -21.082666667v -6.696Z "/><g transform="translate(3.100262501 48.565613317)"><g transform="matrix(1 0 0 -1 0 5.296)"><use xlink:href="#g4448E3A3FE6F42A687DB29912FCB52DC" x="0" y="0" fill="#000000" fill-rule="nonzero"/></g><g transform="matrix(1 0 0 -1 3.333333333 5.296)"><use xlink:href="#g8A2FD8AB5210892E0C175217958DAAC" x="0" y="0" fill="#000000" fill-rule="nonzero"/><use xlink:href="#g25ADDEB4FDDE0943CE2292BD7DE03C61" x="3.464" y="0" fill="#000000" fill-rule="nonzero"/><use xlink:href="#g64E30DDCA85D998B4833244C6CC4286A" x="5.384" y="0" fill="#000000" fill-rule="nonzero"/></g><g transform="matrix(1 0 0 -1 14.514666667 5.296)"><use xlink:href="#g4A5F97377F1F71DC3C4229374DE6718C" x="0" y="0" fill="#000000" fill-rule="nonzero"/></g><g transform="matrix(1 0 0 -1 19.082666667 5.296)"><use xlink:href="#g4448E3A3FE6F42A687DB29912FCB52DC" x="0" y="0" fill="#000000" fill-rule="nonzero"/></g></g><path fill="none" transform="translate(35.26219426 71.087124159)" d="M 0 0m 0 0h 23.050666667v 6.696h -23.050666667v -6.696Z "/><g transform="translate(35.262194235 71.087123989)"><g transform="matrix(1 0 0 -1 0 5.296)"><use xlink:href="#g4448E3A3FE6F42A687DB29912FCB52DC" x="0" y="0" fill="#000000" fill-rule="nonzero"/></g><g transform="matrix(1 0 0 -1 3.333333333 5.296)"><use xlink:href="#g3CC5A72599BE87736B8779C76D10D360" x="0" y="0" fill="#000000" fill-rule="nonzero"/><use xlink:href="#g43098993659A5A24F6C957D6C9F93F" x="3.816" y="0" fill="#000000" fill-rule="nonzero"/><use xlink:href="#g8A2FD8AB5210892E0C175217958DAAC" x="8.352" y="0" fill="#000000" fill-rule="nonzero"/></g><g transform="matrix(1 0 0 -1 16.482666667 5.296)"><use xlink:href="#g4A5F97377F1F71DC3C4229374DE6718C" x="0" y="0" fill="#000000" fill-rule="nonzero"/></g><g transform="matrix(1 0 0 -1 21.050666667 5.296)"><use xlink:href="#g4448E3A3FE6F42A687DB29912FCB52DC" x="0" y="0" fill="#000000" fill-rule="nonzero"/></g></g><path fill="none" transform="translate(53.420598459 46.714432384)" d="M 0 0m 0 0h 4.64v 5.296h -4.64v -5.296Z "/><g transform="translate(53.420598245 46.714432173)"><g transform="matrix(1 0 0 -1 0 5.296)"><use xlink:href="#gB25915224C97331C3D399871BEE790C1" x="0" y="0" fill="#000000" fill-rule="nonzero"/></g></g><path fill="none" transform="translate(69.392125984 70.734651718)" d="M 0 0m 0 0h 6.216v 5.36h -6.216v -5.36Z "/><g transform="translate(69.39212588 70.734651532)"><g transform="matrix(1 0 0 -1 0 5.296)"><use xlink:href="#g6E9D9F6EC9C25ECA46B6D3DACF56B073" x="0" y="0" fill="#000000" fill-rule="nonzero"/></g></g><path fill="none" transform="translate(24.320346524 74.435124159)" d="M 0 0m 0 0h 5.848v 5.296h -5.848v -5.296Z "/><g transform="translate(24.320346276 74.435123948)"><g transform="matrix(1 0 0 -1 0 5.296)"><use xlink:href="#g1FB0A257BBC81D42B6874256BF96FC53" x="0" y="0" fill="#000000" fill-rule="nonzero"/></g></g></g><defs><symbol id="gF7613EB426F1DD85760A5F8AFBE20C9A" overflow="visible"><path d="M 0 0m 0.16 0h 0.744l 0.264 2.152h 0.832c 1.16 0 2.216 0.648 2.216 2.056c 0 1.072 -0.688 1.52 -1.776 1.52h -1.584Z m 1.08 2.744l 0.296 2.4h 0.832c 0.688 0 1.096 -0.312 1.096 -1c 0 -0.872 -0.512 -1.4 -1.392 -1.4Z "/></symbol><symbol id="g7254FF205271575B59696312AEF3E14C" overflow="visible"><path d="M 0 0m 0.6 2.24c 0 -1.584 0.456 -2.712 1.096 -3.696l 0.32 0.208c 0.064 0.04 0.104 0.08 0.104 0.144c 0 0.04 -0.032 0.112 -0.08 0.208c -0.216 0.448 -0.824 1.488 -0.824 3.136c 0 1.28 0.368 2.328 0.864 3.2c 0.032 0.056 0.04 0.104 0.04 0.144c 0 0.072 -0.04 0.112 -0.104 0.152l -0.32 0.2c -0.64 -0.976 -1.096 -2.12 -1.096 -3.696Z "/></symbol><symbol id="g4A5F97377F1F71DC3C4229374DE6718C" overflow="visible"><path d="M 0 0m 0.08 0h 0.624c 0.104 0 0.152 0.072 0.208 0.136l 1.104 1.472c 0.032 0.048 0.064 0.096 0.088 0.152l 0.76 -1.616c 0.04 -0.08 0.088 -0.144 0.2 -0.144h 0.632l -1.072 2.176l 1.44 1.872h -0.64c -0.072 0 -0.12 -0.048 -0.168 -0.112l -0.92 -1.208l -0.096 -0.168l -0.68 1.392c -0.032 0.072 -0.072 0.096 -0.176 0.096h -0.632l 0.968 -1.872Z "/></symbol><symbol id="g3E820EA384D265099FC8524B2C4CAFC" overflow="visible"><path d="M 0 0m 0.4 -1.104c 0 -0.064 0.032 -0.104 0.096 -0.144l 0.312 -0.208c 0.64 0.984 1.112 2.112 1.112 3.696c 0 1.584 -0.464 2.712 -1.112 3.696l -0.312 -0.2c -0.096 -0.064 -0.096 -0.12 -0.096 -0.152c 0 -0.048 0.016 -0.104 0.04 -0.144c 0.496 -0.864 0.864 -1.928 0.864 -3.2c 0 -1.28 -0.368 -2.328 -0.864 -3.2c -0.024 -0.056 -0.04 -0.104 -0.04 -0.144Z "/></symbol><symbol id="g4448E3A3FE6F42A687DB29912FCB52DC" overflow="visible"><path d="M 0 0m 0.72 -1.4h 0.56v 7.28h -0.56Z "/></symbol><symbol id="g8A2FD8AB5210892E0C175217958DAAC" overflow="visible"><path d="M 0 0m 0.272 0.432c 0.304 -0.288 0.76 -0.496 1.344 -0.496c 1.048 0 1.536 0.608 1.536 1.304c 0 1.328 -2.096 0.92 -2.096 1.752c 0 0.4 0.368 0.592 0.776 0.592c 0.544 0 0.808 -0.288 0.944 -0.288c 0.072 0 0.12 0.032 0.152 0.088l 0.16 0.264c -0.296 0.28 -0.712 0.464 -1.272 0.464c -0.832 0 -1.44 -0.464 -1.44 -1.168c 0 -1.416 2.104 -0.912 2.104 -1.824c 0 -0.456 -0.36 -0.672 -0.824 -0.672c -0.648 0 -0.84 0.36 -1.032 0.36c -0.096 0 -0.152 -0.048 -0.192 -0.104Z "/></symbol><symbol id="g25ADDEB4FDDE0943CE2292BD7DE03C61" overflow="visible"><path d="M 0 0m 0.448 5.328c 0 -0.288 0.216 -0.512 0.504 -0.512c 0.288 0 0.52 0.224 0.52 0.512c 0 0.168 -0.152 0.512 -0.52 0.512c -0.288 0 -0.504 -0.224 -0.504 -0.512Z m 0.16 -5.328h 0.704v 4.048h -0.704Z "/></symbol><symbol id="g64E30DDCA85D998B4833244C6CC4286A" overflow="visible"><path d="M 0 0m 0.56 0h 0.72v 2.984c 0.256 0.296 0.6 0.568 1.096 0.568c 0.584 0 0.848 -0.384 0.848 -0.976v -2.576h 0.712v 2.576c 0 0.92 -0.432 1.536 -1.352 1.536c -0.64 0 -1.04 -0.304 -1.352 -0.648c -0.032 0.44 -0.056 0.584 -0.24 0.584h -0.432Z "/></symbol><symbol id="g3CC5A72599BE87736B8779C76D10D360" overflow="visible"><path d="M 0 0m 0.336 2.032c 0 -1.136 0.592 -2.088 1.784 -2.088c 0.68 0 1.192 0.24 1.496 0.624l -0.192 0.264c -0.032 0.04 -0.08 0.064 -0.144 0.064c -0.176 0 -0.352 -0.4 -1.032 -0.4c -0.824 0 -1.184 0.704 -1.184 1.536c 0 0.88 0.352 1.528 1.224 1.528c 0.592 0 0.8 -0.32 0.944 -0.32c 0.088 0 0.112 0.032 0.152 0.088l 0.184 0.256c -0.32 0.32 -0.712 0.528 -1.328 0.528c -0.872 0 -1.904 -0.488 -1.904 -2.08Z "/></symbol><symbol id="g43098993659A5A24F6C957D6C9F93F" overflow="visible"><path d="M 0 0m 0.336 2.032c 0 -1.104 0.592 -2.088 1.936 -2.088c 1.336 0 1.928 0.992 1.928 2.088c 0 1.144 -0.616 2.08 -1.928 2.08c -1.336 0 -1.936 -0.944 -1.936 -2.08Z m 0.736 -0.008c 0 0.888 0.32 1.528 1.2 1.528c 0.856 0 1.192 -0.64 1.192 -1.528c 0 -0.888 -0.336 -1.528 -1.192 -1.528c -0.864 0 -1.2 0.632 -1.2 1.528Z "/></symbol><symbol id="gB25915224C97331C3D399871BEE790C1" overflow="visible"><path d="M 0 0m 0.656 4.272l 0.224 -0.312c 0.032 -0.056 0.112 -0.08 0.184 -0.08c 0.056 0 0.112 0.016 0.152 0.056l 1.024 0.872c -0.008 -0.12 -0.016 -0.24 -0.016 -0.36v -3.904h -1.224v -0.544h 3.072v 0.544h -1.128v 5.2h -0.576Z "/></symbol><symbol id="g6E9D9F6EC9C25ECA46B6D3DACF56B073" overflow="visible"><path d="M 0 0m 0.4 2.448c 0 -1.632 1.048 -2.512 2.28 -2.512c 1.616 0 3.008 1.224 3.008 3.336c 0 1.288 -0.728 2.52 -2.28 2.52c -1.768 0 -3.008 -1.448 -3.008 -3.344Z m 0.768 0.024c 0 1.656 0.896 2.696 2.152 2.696c 0.968 0 1.6 -0.72 1.6 -1.912c 0 -1.312 -0.624 -2.688 -2.152 -2.688c -0.808 0 -1.6 0.552 -1.6 1.904Z "/></symbol><symbol id="g1FB0A257BBC81D42B6874256BF96FC53" overflow="visible"><path d="M 0 0m 0.4 0h 0.752l 0.32 2.616h 2.792l -0.32 -2.616h 0.752l 0.712 5.728h -0.76l -0.312 -2.568h -2.792l 0.312 2.568h -0.752Z "/></symbol></defs></svg>