<svg viewBox="0 0 109.228346457 109.228346457" width="109.228346457pt" height="109.228346457pt" xmlns="http://www.w3.org/2000/svg" xmlns:xlink="http://www.w3.org/1999/xlink" xmlns:h5="http://www.w3.org/1999/xhtml"><path fill="#ffffff" fill-rule="nonzero" d="M 0 0v 109.228346457h 109.228346457v -109.228346457Z "/><g transform="translate(6 6)"><path fill="none" stroke="#000000" stroke-width="0.7" stroke-linecap="butt" stroke-linejoin="miter" stroke-miterlimit="4" transform="translate(7.937007874 9.921259843)" d="M 0 0m 39.68503937 0c -21.897569764 0 -39.68503937 17.787469606 -39.68503937 39.68503937c 0 21.897569764 17.787469606 39.68503937 39.68503937 39.68503937c 21.897569764 0 39.68503937 -17.787469606 39.68503937 -39.68503937c 0 -21.897569764 -17.787469606 -39.68503937 -39.68503937 -39.68503937Z "/><path fill="none" stroke="#000000" stroke-width="0.4" stroke-linecap="butt" stroke-linejoin="miter" stroke-miterlimit="4" transform="translate(0 49.606299213)" d="M 0 0m 0 0h 97.228346457"/><path fill="none" stroke="#000000" stroke-width="0.4" stroke-linecap="butt" stroke-linejoin="miter" stroke-miterlimit="4" transform="translate(47.622047244)" d="M 0 0m 0 97.228346457v -97.228346457"/><path fill="none" stroke="#000000" stroke-width="0.8" stroke-linecap="butt" stroke-linejoin="miter" stroke-miterlimit="4" transform="translate(58.992759474 46.079205649)" d="M 0 0m 0.534799581 3.527093563l -0.001813267 -0.207779831l -0.005439249 -0.207716539l -0.009063574 -0.207589975l -0.012685138 -0.207400177l -0.016302838 -0.207147203l -0.019915573 -0.206831129l -0.02352224 -0.206452053l -0.027121743 -0.20601009l -0.030712984 -0.205505374l -0.034294869 -0.204938059l -0.037866309 -0.204308318l -0.041426213 -0.203616343l -0.044973499 -0.202862344l -0.048507085 -0.202046551l -0.052025896 -0.201169213l -0.055528859 -0.200230597l -0.059014907 -0.199230989l -0.014585337 -0.046258779"/><path fill="#000000" fill-rule="nonzero" stroke="#000000" stroke-width="0.8" stroke-linecap="butt" stroke-linejoin="miter" stroke-miterlimit="4" stroke-dashoffset="0" stroke-dasharray="" transform="translate(55.96076737 41.395639887)" d="M 0 0m 0 0l 5.111238558 3.245907226l -3.39460056 2.560453709l -1.716637998 -5.806360935Z "/><path fill="none" stroke="#000000" stroke-width="0.8" stroke-linecap="butt" stroke-linejoin="miter" stroke-miterlimit="4" stroke-dashoffset="0" stroke-dasharray="3 3" transform="translate(24.477865616 29.067740277)" d="M 0 0m 41.002449345 20.538558936l 0.048060008 -0.640948498l 0.024987239 -0.644384141l 0.001730338 -0.646986786l -0.021680538 -0.648747666l -0.045214837 -0.649659107l -0.068841658 -0.649714545l -0.092529788 -0.648908546l -0.116247745 -0.647236816l -0.139963817 -0.644696212l -0.16364611 -0.641284758l -0.187262583 -0.637001649l -0.210781099 -0.631847261l -0.234169462 -0.625823158l -0.257395466 -0.618932093l -0.280426936 -0.611178016l -0.303231774 -0.60256607l -0.325778001 -0.593102593l -0.348033805 -0.582795118l -0.369967583 -0.571652363l -0.391547986 -0.559684233l -0.412743965 -0.546901807l -0.433524811 -0.533317333l -0.453860203 -0.518944217l -0.473720251 -0.503797007l -0.493075536 -0.487891385l -0.511897157 -0.471244148l -0.53015677 -0.453873194l -0.547826632 -0.435797499l -0.564879641 -0.417037102l -0.581289376 -0.397613078l -0.597030137 -0.377547521l -0.612076986 -0.356863513l -0.626405781 -0.335585102l -0.639993218 -0.313737273l -0.652816861 -0.291345918l -0.664855184 -0.268437808l -0.676087601 -0.245040558l -0.686494498 -0.221182596l -0.696057269 -0.196893129l -0.704758343 -0.172202104l -0.712581215 -0.147140176l -0.719510473 -0.121738664l -0.725531826 -0.09602952l -0.730632127 -0.070045279l -0.7347994 -0.043819026l -0.738022858 -0.017384351l -0.74029293 0.009224696l -0.741601272 0.035973646l -0.741940793 0.062827657l -0.741305666 0.089751559l -0.739691341 0.1167099l -0.737094563 0.143666993l -0.73351338 0.170586963l -0.728947152 0.197433795l -0.723396558 0.22417138l -0.716863604 0.250763568l -0.709351625 0.277174212l -0.700865288 0.303367218l -0.691410592 0.329306598l -0.680994866 0.354956514l -0.669626767 0.380281331l -0.657316276 0.405245662l -0.644074687 0.429814422l -0.629914602 0.453952875l -0.614849918 0.477626682l -0.598895817 0.500801948l -0.582068749 0.523445274l -0.56438642 0.545523801l -0.545867769 0.567005259l -0.526532954 0.587858011l -0.506403325 0.608051104l -0.485501407 0.627554306l -0.46385087 0.646338159l -0.441476507 0.664374016l -0.418404203 0.681634087l -0.394660907 0.698091478l -0.370274599 0.713720235l -0.345274259 0.72849538l -0.319689833 0.742392952l -0.293552197 0.755390042l -0.266893117 0.767464831l -0.239745215 0.778596623l -0.212141928 0.788765878l -0.184117463 0.797954245l -0.155706759 0.806144593l -0.126945444 0.813321035l -0.097869786 0.819468963l -0.06851665 0.824575067l -0.038923453 0.828627362l -0.009128112 0.83161521l 0.020831002 0.83352934l 0.050915112 0.834361866l 0.081085088 0.834106309l 0.111301498 0.832757605l 0.141524655 0.830312123l 0.171714676 0.826767675l 0.201831529 0.822123526l 0.231835087 0.816380403l 0.261685186 0.809540497l 0.29134167 0.801607472l 0.320764455 0.792586462l 0.349913573 0.782484073l 0.378749236 0.771308381l 0.40723188 0.759068929l 0.435322229 0.745776718l 0.462981342 0.7314442l 0.490170667 0.71608527l 0.516852098 0.699715251l 0.542988027 0.682350881l 0.568541394 0.664010299l 0.59347574 0.644713022l 0.617755263 0.624479931l 0.64134486 0.603333245l 0.664210185 0.5812965l 0.686317696 0.55839452l 0.7076347 0.534653392l 0.728129407 0.510100439l 0.747770968 0.484764183l 0.766529529 0.458674317l 0.78437627 0.43186167l 0.801283449 0.404358167l 0.817224444 0.376196796l 0.832173795 0.347411567l 0.846107241 0.318037471l 0.859001756 0.288110434l 0.870835591 0.257667281l 0.881588304 0.226745683l 0.891240792 0.195384115l 0.899775325 0.163621806l 0.907175577 0.131498693l 0.913426648 0.099055365l 0.918515096 0.066333019l 0.922428959 0.033373401l 0.925157775 0.000218757l 0.926692606 -0.033088221l 0.927026054 -0.066504455l 0.926152279 -0.099986529l 0.924067012 -0.133490752l 0.920767569 -0.166973212l 0.916252859 -0.200389834l 0.910523395 -0.233696437l 0.903581296 -0.266848795l 0.895430296 -0.299802693l 0.886075743 -0.332513986l 0.875524598 -0.364938661l 0.863785435 -0.397032893l 0.850868434 -0.428753103l 0.836785373 -0.460056022l 0.821549626 -0.490898746l 0.805176142 -0.521238793l 0.787681439 -0.551034168l 0.769083587 -0.580243412l 0.749402186 -0.608825666l 0.728658354 -0.636740725l 0.706874698 -0.663949095l 0.684075294 -0.690412046l 0.660285661 -0.716091671l 0.635532732 -0.740950935l 0.609844823 -0.764953731l 0.583251603 -0.788064931l 0.555784059 -0.810250435l 0.527474463 -0.831477222l 0.498356329 -0.851713398l 0.468464378 -0.870928243l 0.437834495 -0.889092256l 0.406503688 -0.906177198l 0.37451004 -0.922156138l 0.341892667 -0.937003489l 0.308691665 -0.950695053l 0.274948068 -0.963208052l 0.24070379 -0.974521172l 0.206001578 -0.984614587l 0.170884956 -0.993470003l 0.135398172 -1.001070677l 0.099586141 -1.007401454l 0.06349439 -1.012448786l 0.027168998 -1.016200764l -0.009343462 -1.018647134l -0.045995982 -1.019779321l -0.08274118 -1.019590443l -0.119531364 -1.01807533l -0.156318586 -1.015230539l -0.193054716 -1.011054361l -0.229691493 -1.00554683l -0.266180598 -0.998709736l -0.302473712 -0.990546622l -0.338522582 -0.981062791l -0.374279084 -0.970265303l -0.409695288 -0.958162975l -0.444723524 -0.944766372l -0.479316442 -0.930087806l -0.513427076 -0.914141321l -0.547008914 -0.896942683l -0.333410013 -0.504992694"/><path fill="#000000" fill-rule="nonzero" stroke="#000000" stroke-width="0.8" stroke-linecap="butt" stroke-linejoin="miter" stroke-miterlimit="4" stroke-dashoffset="0" stroke-dasharray="" transform="translate(67.509744648 27.658200488)" d="M 0 0m 0 0l 5.35234912 2.830729979l -3.181059222 2.821364632l -2.171289899 -5.652094611Z "/><path fill="none" stroke="#000000" stroke-width="0.7" stroke-linecap="butt" stroke-linejoin="miter" stroke-miterlimit="4" transform="translate(47.622047244 19.205795328)" d="M 0 0m 0 30.400503884l 25.509051597 -30.400503884"/><path fill="#000000" fill-rule="nonzero" stroke="#000000" stroke-width="1" stroke-linecap="butt" stroke-linejoin="miter" stroke-miterlimit="4" transform="translate(71.543697266 17.618393753)" d="M 0 0m 1.587401575 0c -0.875902791 0 -1.587401575 0.711498784 -1.587401575 1.587401575c 0 0.875902791 0.711498784 1.587401575 1.587401575 1.587401575c 0.875902791 0 1.587401575 -0.711498784 1.587401575 -1.587401575c 0 -0.875902791 -0.711498784 -1.587401575 -1.587401575 -1.587401575Z "/><path fill="none" transform="translate(76.192185033 10.261734862)" d="M 0 0m 0 0h 4.592v 5.296h -4.592v -5.296Z "/><g transform="translate(76.192184856 10.261734736)"><g transform="matrix(1 0 0 -1 0 5.296)"><use xlink:href="#gF7613EB426F1DD85760A5F8AFBE20C9A" x="0" y="0" fill="#000000" fill-rule="nonzero"/></g></g><path fill="#000000" fill-rule="nonzero" stroke="#000000" stroke-width="1" stroke-linecap="butt" stroke-linejoin="miter" stroke-miterlimit="4" transform="translate(86.116535433 48.415748031)" d="M 0 0m 1.190551181 0c -0.656927093 0 -1.190551181 0.533624088 -1.190551181 1.190551181c 0 0.656927093 0.533624088 1.190551181 1.190551181 1.190551181c 0.656927093 0 1.190551181 -0.533624088 1.190551181 -1.190551181c 0 -0.656927093 -0.533624088 -1.190551181 -1.190551181 -1.190551181Z "/></g><defs><symbol id="gF7613EB426F1DD85760A5F8AFBE20C9A" overflow="visible"><path d="M 0 0m 0.16 0h 0.744l 0.264 2.152h 0.832c 1.16 0 2.216 0.648 2.216 2.056c 0 1.072 -0.688 1.52 -1.776 1.52h -1.584Z m 1.08 2.744l 0.296 2.4h 0.832c 0.688 0 1.096 -0.312 1.096 -1c 0 -0.872 -0.512 -1.4 -1.392 -1.4Z "/></symbol></defs></svg>