<svg viewBox="0 0 49.29 19.8815" width="49.29pt" height="19.8815pt" xmlns="http://www.w3.org/2000/svg" xmlns:xlink="http://www.w3.org/1999/xlink" xmlns:h5="http://www.w3.org/1999/xhtml"><path fill="#ffffff" fill-rule="nonzero" d="M 0 0v 19.8815h 49.29v -19.8815Z "/><g transform="matrix(1 0 0 -1 6 13.8815)"><use xlink:href="#g9CDA82D7C6087A7C735E0BA8B620E6A9" x="0" y="0" fill="#000000" fill-rule="nonzero"/><use xlink:href="#g858966C001BCFF83B2F1A65D32F9CBAB" x="6.38" y="0" fill="#000000" fill-rule="nonzero"/><use xlink:href="#gE0CA58C6A9EE5B87940730884360BAA9" x="15.576" y="0" fill="#000000" fill-rule="nonzero"/><use xlink:href="#g9CDA82D7C6087A7C735E0BA8B620E6A9" x="24.53" y="0" fill="#000000" fill-rule="nonzero"/><use xlink:href="#g220FEA33EC8D4430459DCB3DC852CB8F" x="30.91" y="0" fill="#000000" fill-rule="nonzero"/></g><defs><symbol id="g9CDA82D7C6087A7C735E0BA8B620E6A9" overflow="visible"><path d="M 0 0m 5.599 0.748v -0.748h -4.224v 0.748h 1.6885v 5.3735q 0 0.242 0.0165 0.4895l -1.4025 -1.2045q -0.0715 -0.0605 -0.143 -0.07425q -0.0715 -0.01375 -0.132 -0.00275q -0.0605 0.011 -0.11275 0.044q -0.05225 0.033 -0.07975 0.0715l -0.308 0.4235l 2.3485 2.0295h 0.7975v -7.15h 1.551Z "/></symbol><symbol id="g858966C001BCFF83B2F1A65D32F9CBAB" overflow="visible"><path d="M 0 0m 5.4285 0.9295q 0.1595 0 0.253 -0.0935q 0.0935 -0.0935 0.0935 -0.242v -0.594h -5.258v 0.3355q 0 0.1045 0.044 0.2145q 0.044 0.11 0.1375 0.2035l 2.5245 2.5355q 0.3135 0.319 0.572 0.61325q 0.2585 0.29425 0.44 0.59125q 0.1815 0.297 0.2805 0.60225q 0.099 0.30525 0.099 0.65175q 0 0.3465 -0.11 0.60775q -0.11 0.26125 -0.29975 0.43175q -0.18975 0.1705 -0.44825 0.25575q -0.2585 0.08525 -0.5555 0.08525q -0.3025 0 -0.5555 -0.088q -0.253 -0.088 -0.44825 -0.24475q -0.19525 -0.15675 -0.32725 -0.37125q -0.132 -0.2145 -0.187 -0.473q -0.066 -0.1925 -0.17875 -0.25575q -0.11275 -0.06325 -0.31625 -0.03575l -0.5115 0.088q 0.077 0.539 0.29975 0.95425q 0.22275 0.41525 0.561 0.69575q 0.33825 0.2805 0.77275 0.42625q 0.4345 0.14575 0.9405 0.14575q 0.5005 0 0.935 -0.1485q 0.4345 -0.1485 0.7535 -0.43175q 0.319 -0.28325 0.5005 -0.69025q 0.1815 -0.407 0.1815 -0.924q 0 -0.44 -0.132 -0.81675q -0.132 -0.37675 -0.3575 -0.71775q -0.2255 -0.341 -0.51975 -0.6655q -0.29425 -0.3245 -0.62425 -0.6545l -2.079 -2.123q 0.22 0.0605 0.4455 0.09625q 0.2255 0.03575 0.4345 0.03575h 2.64Z "/></symbol><symbol id="gE0CA58C6A9EE5B87940730884360BAA9" overflow="visible"><path d="M 0 0m 1.76 4.829q 0.3575 0.3795 0.792 0.605q 0.4345 0.2255 1.001 0.2255q 0.4565 0 0.80575 -0.15125q 0.34925 -0.15125 0.583 -0.429q 0.23375 -0.27775 0.35475 -0.66825q 0.121 -0.3905 0.121 -0.8635v -3.5475h -0.9845v 3.5475q 0 0.6325 -0.28875 0.98175q -0.28875 0.34925 -0.87725 0.34925q -0.4345 0 -0.81125 -0.209q -0.37675 -0.209 -0.69575 -0.5665v -4.103h -0.9845v 8.1015h 0.9845v -3.2725Z "/></symbol><symbol id="g220FEA33EC8D4430459DCB3DC852CB8F" overflow="visible"><path d="M 0 0m 4.015 2.8435v 3.2505q 0 0.143 0.011 0.3135q 0.011 0.1705 0.033 0.3465l -2.871 -3.9105h 2.827Z m 2.0515 0v -0.561q 0 -0.088 -0.05225 -0.1485q -0.05225 -0.0605 -0.16225 -0.0605h -0.979v -2.0735h -0.858v 2.0735h -3.498q -0.11 0 -0.18975 0.06325q -0.07975 0.06325 -0.10175 0.15675l -0.099 0.5005l 3.8335 5.0875h 0.913v -5.038h 1.1935Z "/></symbol></defs></svg>